<svg xmlns="http://www.w3.org/2000/svg" width="183.388" height="45.066" viewBox="0 0 183.388 45.066"><defs><style>.a{fill:#fff;}.b{fill:#0f55a8;}.c{fill:#2673e5;}.d{fill:#ffce00;}.e{fill:#dbb205;}</style></defs><g transform="translate(0.915 1.394)"><path class="a" d="M122.428,109.728s15.083-12.334,15.607-21.255.426-11.6.426-11.6-15.686-9.534-16.36-9.445S103.9,76.462,103.9,76.462,101.249,101.425,122.428,109.728Z" transform="translate(-103.789 -67.427)"/></g><g transform="translate(0.403 0.403)"><g transform="translate(0 0)"><path d="M120.682,65.211a.51.51,0,0,0-.126.046l-17.647,9.467a.5.5,0,0,0-.27.455c-.056,11.313,2.25,18.525,5.65,23.584s7.87,7.936,12.016,10.62a.5.5,0,0,0,.534,0c4.172-2.642,8.671-5.475,12.121-10.5s5.828-12.214,5.884-23.527a.5.5,0,0,0-.265-.457L121.028,65.26a.5.5,0,0,0-.346-.049Zm.1,1.069,17.036,9.356c-.1,10.994-2.4,17.89-5.691,22.68-3.249,4.731-7.462,7.455-11.553,10.047-4.066-2.632-8.252-5.4-11.453-10.161-3.24-4.821-5.478-11.74-5.466-22.735Z" transform="translate(-102.638 -65.2)"/></g></g><g transform="translate(1.007 1.39)"><path class="b" d="M138.758,76.865S122.1,67.33,121.426,67.419s-17.234,9.035-17.234,9.035S100.9,99.5,121.329,110.074C121.329,110.074,140.772,100.94,138.758,76.865Z" transform="translate(-103.996 -67.419)"/></g><g transform="translate(3.737 1.39)"><path class="c" d="M139.3,75.625s-13.9-8.3-14.468-8.206-14.629,8.206-14.629,8.206-1.985,20.7,14.548,34.448C124.753,110.074,140.994,99.7,139.3,75.625Z" transform="translate(-110.131 -67.418)"/></g><g transform="translate(4.265 22.345)"><path class="d" d="M125.657,136.751l8.952-7.2,4-5.8,2.024-5.85-2.977-2.575-3.573-.273-4.931-.547-4.771.307-2.935,1.042-4.988,1.365-1.844,1.763-1.855,2.434-1.44.185,7.914,11.554Z" transform="translate(-111.318 -114.507)"/></g><g transform="translate(3.678 21.821)"><g transform="translate(12.138 13.563)"><path class="e" d="M144.054,143.808a.674.674,0,0,0-.687.656c-.015,1.264-.555,2.011-1.563,2.158a3.1,3.1,0,0,1-3.192-1.8c0-.014-.009-.028-.014-.042a.689.689,0,0,0-.874-.4.659.659,0,0,0-.413.849,4.414,4.414,0,0,0,4.1,2.745,3.908,3.908,0,0,0,.6-.042,3.2,3.2,0,0,0,2.725-3.456v0A.674.674,0,0,0,144.054,143.808Z" transform="translate(-137.273 -143.808)"/></g><g transform="translate(2.823 10.291)"><path class="e" d="M117.379,140.392a4.373,4.373,0,0,0,.583.04,4.018,4.018,0,0,0,1.382-.23,2.914,2.914,0,0,0,1.958-3.135v0a.678.678,0,0,0-.733-.612.671.671,0,0,0-.63.712,1.579,1.579,0,0,1-1.07,1.787,2.94,2.94,0,0,1-2.528-.348C116.68,139.209,117.023,139.808,117.379,140.392Z" transform="translate(-116.34 -136.456)"/></g><g transform="translate(8.299 4.807)"><path class="e" d="M130.235,124.66a3.08,3.08,0,0,0-1.489,3.46.69.69,0,0,0,.858.433.66.66,0,0,0,.445-.833,1.763,1.763,0,0,1,.91-1.936c1.011-.618,2.3-.357,3.46.7l.021.02a.7.7,0,0,0,.965-.049.651.651,0,0,0-.05-.938C133.43,123.756,131.445,123.92,130.235,124.66Z" transform="translate(-128.646 -124.132)"/></g><g transform="translate(18.22 3.5)"><path class="e" d="M158.178,126.353a1.779,1.779,0,0,0,.826-1.216v.011a.666.666,0,0,0-.554-.748.682.682,0,0,0-.795.534.466.466,0,0,1-.234.324c-.26.167-1.1.5-3.322-.02-2.2-.518-1.759-3.15-1.74-3.261a.666.666,0,0,0-.553-.77.682.682,0,0,0-.793.538c-.252,1.37,0,4.133,2.764,4.781.158.037.308.067.459.1a1.463,1.463,0,0,1,.608,1.331,1.422,1.422,0,0,1-1.122.99h0a.661.661,0,0,0-.456.828.687.687,0,0,0,.852.443,2.714,2.714,0,0,0,2.072-2.027,2.437,2.437,0,0,0-.149-1.352h.09A3.72,3.72,0,0,0,158.178,126.353Z" transform="translate(-150.939 -121.196)"/></g><g transform="translate(0.132 0.193)"><path class="e" d="M171.558,131.516a8.734,8.734,0,0,0-2.412.553.659.659,0,0,0-.411.85.69.69,0,0,0,.875.4,10.385,10.385,0,0,1,1.36-.369C171.141,132.463,171.342,131.988,171.558,131.516Z" transform="translate(-142.705 -123.616)"/><path class="e" d="M137.15,142.512a1.2,1.2,0,0,1-.019-.319,7.3,7.3,0,0,1-3.565-.254,5.5,5.5,0,0,1-3.408-2.647,6.073,6.073,0,0,1-.38-4.715c.649-1.952,3.272-2.222,4.757-2.354,1.08.2,1.364.546,1.432.687a.771.771,0,0,1-.116.687.654.654,0,0,0,.255.906.7.7,0,0,0,.932-.248,1.888,1.888,0,0,0-.445-2.634,2.372,2.372,0,0,0,.545-.549,2.857,2.857,0,0,0,.346-2.322.684.684,0,0,0-.813-.506.664.664,0,0,0-.522.786,1.651,1.651,0,0,1-.148,1.3,1.227,1.227,0,0,1-.816.485c-.16.029-.392.048-.671.073-1.652.145-5.091.447-6.03,3.276a7.387,7.387,0,0,0,.47,5.74c.081.15.172.291.263.433-.109.011-.224.019-.338.028.507.415,1.009.839,1.5,1.279a2.03,2.03,0,0,1,.189.205,7.241,7.241,0,0,0,2.6,1.36,9.989,9.989,0,0,0,2.757.436c.159,0,.318-.008.476-.02A1.9,1.9,0,0,1,137.15,142.512Z" transform="translate(-120.183 -121.792)"/><path class="e" d="M135.046,117.617a3.993,3.993,0,0,0-.473-1.172,7.027,7.027,0,0,1,4.18,1.315,7.9,7.9,0,0,1,1.63,1.558,13.125,13.125,0,0,1,.441-1.533,9.041,9.041,0,0,0-1.273-1.1,8.221,8.221,0,0,0-6.068-1.465,7.3,7.3,0,0,0-3.526-1.354c-2.28-.31-5.1.1-6.283,1.171a7.482,7.482,0,0,0-2.9-.36c-2.635.165-5.309,1.513-6.359,3.2a4.8,4.8,0,0,0-.534,1.2,7.021,7.021,0,0,0-3.586,2.664q.445.565.854,1.184a5.758,5.758,0,0,1,2.56-2.368,5.119,5.119,0,0,0,1.226,3.023.7.7,0,0,0,.965.062.651.651,0,0,0,.064-.938,3.535,3.535,0,0,1-.374-4.145c.822-1.323,3.091-2.428,5.275-2.563a5.034,5.034,0,0,1,4.264,1.57.7.7,0,0,0,.957.128.651.651,0,0,0,.131-.93l-.019-.024a5.322,5.322,0,0,0-1.151-1.032,9.1,9.1,0,0,1,4.721-.53c1.288.176,3.514.763,3.943,2.718a.679.679,0,0,0,.664.525.7.7,0,0,0,.146-.014.665.665,0,0,0,.527-.787Z" transform="translate(-110.293 -113.764)"/></g><g transform="translate(18.019 3.305)"><path class="e" d="M158.035,126.274a1.972,1.972,0,0,0,.916-1.342h0a.86.86,0,0,0-.716-.968.9.9,0,0,0-.662.138.853.853,0,0,0-.368.554.278.278,0,0,1-.147.194c-.186.12-.964.469-3.164-.048-2.017-.475-1.607-2.934-1.589-3.037a.834.834,0,0,0-.146-.642.894.894,0,0,0-1.6.341c-.263,1.433.006,4.324,2.915,5.006.134.032.263.058.393.084l.027.006a1.273,1.273,0,0,1,.5,1.094,1.226,1.226,0,0,1-.987.857.857.857,0,0,0-.591,1.072.886.886,0,0,0,.845.612.87.87,0,0,0,.246-.036,2.93,2.93,0,0,0,2.225-2.185,2.624,2.624,0,0,0-.065-1.183h.014A3.909,3.909,0,0,0,158.035,126.274Zm-2.153.121-.391,0,.112.271a2.231,2.231,0,0,1,.139,1.237,2.534,2.534,0,0,1-1.933,1.882.485.485,0,0,1-.6-.312.465.465,0,0,1,.3-.579,1.614,1.614,0,0,0,1.287-1.164,1.666,1.666,0,0,0-.689-1.506l-.152-.049c-.124-.025-.25-.05-.38-.081-2.617-.614-2.854-3.249-2.613-4.557a.479.479,0,0,1,.474-.386.5.5,0,0,1,.085.007.48.48,0,0,1,.311.193.455.455,0,0,1,.079.351c-.021.119-.488,2.924,1.891,3.484,2.21.52,3.13.219,3.469,0a.658.658,0,0,0,.333-.459.462.462,0,0,1,.2-.3.493.493,0,0,1,.36-.075.469.469,0,0,1,.392.514h0a1.581,1.581,0,0,1-.73,1.079A3.489,3.489,0,0,1,155.882,126.395Z" transform="translate(-150.487 -120.756)"/></g><g transform="translate(0.862 1.308)"><path class="e" d="M137.055,130.931a3.051,3.051,0,0,0,.372-2.467.886.886,0,0,0-1.053-.656.863.863,0,0,0-.673,1.033,1.466,1.466,0,0,1-.119,1.133,1.035,1.035,0,0,1-.688.406c-.137.025-.342.043-.579.063l-.074.007c-1.7.149-5.223.46-6.2,3.411a7.534,7.534,0,0,0,.484,5.89c.032.06.066.119.1.178-.073.006-.149.009-.223.014.149.12.3.235.447.357l.137-.012.31-.049-.17-.265c-.085-.133-.17-.266-.244-.4a7.155,7.155,0,0,1-.458-5.591c.9-2.7,4.246-3,5.857-3.141l.072-.006c.248-.022.462-.04.61-.068a1.441,1.441,0,0,0,.962-.583,1.845,1.845,0,0,0,.169-1.439.469.469,0,0,1,.368-.554.484.484,0,0,1,.576.368,2.669,2.669,0,0,1-.318,2.159,2.152,2.152,0,0,1-.5.5l-.215.156.214.158a1.7,1.7,0,0,1,.392,2.381.49.49,0,0,1-.657.174.46.46,0,0,1-.191-.622.974.974,0,0,0,.134-.883c-.1-.2-.433-.58-1.576-.8l-.028-.005-.029,0c-1.372.122-4.228.375-4.93,2.489a6.227,6.227,0,0,0,.394,4.867,5.718,5.718,0,0,0,3.528,2.742,7.539,7.539,0,0,0,3.622.266,1.079,1.079,0,0,1,.042-.407,7.04,7.04,0,0,1-3.552-.235,5.317,5.317,0,0,1-3.282-2.546,5.847,5.847,0,0,1-.368-4.567c.616-1.853,3.258-2.1,4.555-2.216,1.056.2,1.242.534,1.25.546a.6.6,0,0,1-.1.533.848.848,0,0,0,.331,1.173.9.9,0,0,0,1.2-.312,2.071,2.071,0,0,0-.3-2.738A2.6,2.6,0,0,0,137.055,130.931Z" transform="translate(-120.658 -122.661)"/><path class="e" d="M170.8,132.478a10.618,10.618,0,0,0-1.512.4.5.5,0,0,1-.369-.016.464.464,0,0,1,.048-.867,8.5,8.5,0,0,1,2.242-.532c.06-.137.126-.272.19-.408a8.89,8.89,0,0,0-2.577.575.855.855,0,0,0-.532,1.1.864.864,0,0,0,.457.486.9.9,0,0,0,.677.03,10.315,10.315,0,0,1,1.224-.341C170.7,132.762,170.751,132.62,170.8,132.478Z" transform="translate(-143.185 -124.474)"/><path class="e" d="M136.154,118.964a4.161,4.161,0,0,0-.332-.929,6.859,6.859,0,0,1,3.723,1.273,7.711,7.711,0,0,1,1.685,1.637l.009-.014c.036-.154.075-.308.112-.462a8.056,8.056,0,0,0-1.567-1.477,7.318,7.318,0,0,0-4.3-1.353l-.346,0,.174.291a3.8,3.8,0,0,1,.449,1.111v.006a.469.469,0,0,1-.372.555.252.252,0,0,1-.1.01.475.475,0,0,1-.467-.37c-.455-2.07-2.772-2.687-4.109-2.87a9.308,9.308,0,0,0-4.829.542l-.348.137.31.206a5.136,5.136,0,0,1,1.123,1.012.453.453,0,0,1,.093.346.461.461,0,0,1-.186.309.493.493,0,0,1-.678-.093,5.224,5.224,0,0,0-4.434-1.644c-2.244.139-4.58,1.282-5.437,2.66a3.737,3.737,0,0,0,.4,4.372.461.461,0,0,1-.045.662.5.5,0,0,1-.35.115.48.48,0,0,1-.328-.155,4.9,4.9,0,0,1-1.18-2.909l-.017-.293-.272.128a5.965,5.965,0,0,0-2.595,2.363q.125.184.247.372a5.547,5.547,0,0,1,2.262-2.25,5.283,5.283,0,0,0,1.249,2.842.9.9,0,0,0,1.25.081.844.844,0,0,0,.085-1.211,3.351,3.351,0,0,1-.355-3.917c.792-1.276,2.991-2.337,5.115-2.469a4.828,4.828,0,0,1,4.09,1.493.9.9,0,0,0,1.24.165.852.852,0,0,0,.147-1.232,5.486,5.486,0,0,0-.89-.854,8.9,8.9,0,0,1,4.276-.391c1.236.169,3.371.727,3.775,2.565a.873.873,0,0,0,.859.68.7.7,0,0,0,.19-.019.864.864,0,0,0,.686-1Z" transform="translate(-111.935 -116.269)"/></g><g transform="translate(11.937 13.367)"><path class="e" d="M143.8,143.368a.875.875,0,0,0-.885.85c-.013,1.172-.482,1.834-1.385,1.966a2.912,2.912,0,0,1-2.974-1.655c-.006-.019-.012-.037-.018-.054a.893.893,0,0,0-1.131-.519.855.855,0,0,0-.533,1.1,4.589,4.589,0,0,0,4.284,2.87h.024a4.212,4.212,0,0,0,.608-.044,3.38,3.38,0,0,0,2.9-3.648v-.006a.873.873,0,0,0-.881-.863Zm.482.863v0a3.011,3.011,0,0,1-2.554,3.264,3.385,3.385,0,0,1-.568.04,4.187,4.187,0,0,1-3.908-2.615.465.465,0,0,1,.292-.6.485.485,0,0,1,.162-.028.5.5,0,0,1,.206.045.472.472,0,0,1,.248.266l.018.053a3.331,3.331,0,0,0,3.407,1.912c1.1-.162,1.719-1,1.735-2.35a.477.477,0,0,1,.482-.463h0A.477.477,0,0,1,144.283,144.231Z" transform="translate(-136.822 -143.368)"/></g><g transform="translate(2.553 10.096)"><path class="e" d="M116.2,138.706a3.138,3.138,0,0,0,2.4.193,1.757,1.757,0,0,0,1.2-1.987.458.458,0,0,1,.115-.341.486.486,0,0,1,.846.27l.093,0-.092.012a2.734,2.734,0,0,1-1.827,2.925,3.851,3.851,0,0,1-1.314.218,4.2,4.2,0,0,1-.716-.067c.087.146.175.292.264.436.138.013.275.023.415.023h.081a4.2,4.2,0,0,0,1.407-.241,3.127,3.127,0,0,0,2.089-3.345.893.893,0,0,0-1.553-.482.845.845,0,0,0-.208.646,1.376,1.376,0,0,1-.935,1.566,2.708,2.708,0,0,1-2.734-.638Z" transform="translate(-115.734 -136.017)"/></g><path class="e" d="M140.583,117.745c.046-.136.1-.271.155-.406a9.3,9.3,0,0,0-1.23-1.052,8.48,8.48,0,0,0-6.137-1.514,7.5,7.5,0,0,0-3.55-1.342c-2.1-.286-5.01.021-6.358,1.143a7.648,7.648,0,0,0-2.867-.334c-2.7.169-5.437,1.557-6.519,3.3a5.01,5.01,0,0,0-.525,1.146,7.233,7.233,0,0,0-3.554,2.65c.089.109.177.218.263.33a6.824,6.824,0,0,1,3.519-2.643l.1-.033.029-.1a4.607,4.607,0,0,1,.512-1.149c1.018-1.641,3.626-2.949,6.2-3.111a7.257,7.257,0,0,1,2.821.351l.115.038.088-.081c1.048-.952,3.736-1.445,6.123-1.119a7.093,7.093,0,0,1,3.427,1.315l.068.05.084-.013a8.065,8.065,0,0,1,5.918,1.43A8.972,8.972,0,0,1,140.583,117.745Z" transform="translate(-109.997 -113.33)"/><path class="e" d="M138.885,159.776c-.176.014-.353.021-.528.022a9.763,9.763,0,0,1-2.7-.429,7.056,7.056,0,0,1-2.888-1.62l-.073-.068-.1.016-.109.015c.108.094.218.184.324.279a1.948,1.948,0,0,1,.5.692,7.487,7.487,0,0,0,2.232,1.059,10.188,10.188,0,0,0,2.818.445c.145,0,.291-.008.436-.017A1.89,1.89,0,0,1,138.885,159.776Z" transform="translate(-122.476 -137.944)"/><g transform="translate(8.1 4.609)"><path class="e" d="M130.819,125.7c.928-.567,2.13-.315,3.24.7a.9.9,0,0,0,1.25-.063.842.842,0,0,0-.063-1.212c-2.01-1.838-4.089-1.659-5.359-.882a3.291,3.291,0,0,0-1.58,3.689.879.879,0,0,0,.839.6h.007a.887.887,0,0,0,.265-.04.852.852,0,0,0,.581-1.061A1.583,1.583,0,0,1,130.819,125.7Zm-1.21,1.829a.467.467,0,0,1-.316.587.484.484,0,0,1-.147.022.478.478,0,0,1-.454-.316,2.9,2.9,0,0,1,1.4-3.247,3.468,3.468,0,0,1,1.805-.5,4.544,4.544,0,0,1,3.07,1.331l0,0a.459.459,0,0,1,.036.661.487.487,0,0,1-.333.154.5.5,0,0,1-.366-.137c-1.226-1.121-2.612-1.391-3.695-.729A1.971,1.971,0,0,0,129.609,127.532Z" transform="translate(-128.2 -123.686)"/></g></g><g transform="translate(4.069 21.196)"><path d="M144.054,142.853a.683.683,0,0,0-.687.676c-.015,1.3-.555,2.07-1.563,2.222a3.085,3.085,0,0,1-3.192-1.849c0-.014-.009-.028-.014-.043a.683.683,0,1,0-1.287.461,4.416,4.416,0,0,0,4.1,2.826,3.8,3.8,0,0,0,.6-.044c1.684-.255,2.7-1.585,2.725-3.558v0A.683.683,0,0,0,144.054,142.853Z" transform="translate(-125.526 -129.089)"/><path d="M158.178,124.883a1.832,1.832,0,0,0,.826-1.251v.011a.683.683,0,0,0-1.348-.221.479.479,0,0,1-.234.334c-.26.171-1.1.515-3.322-.021-2.2-.534-1.759-3.242-1.74-3.357a.683.683,0,0,0-1.346-.239c-.252,1.411,0,4.255,2.764,4.922.158.038.308.069.459.1a1.525,1.525,0,0,1,.608,1.37,1.436,1.436,0,0,1-1.122,1.02h0a.683.683,0,1,0,.4,1.307,2.752,2.752,0,0,0,2.072-2.087,2.578,2.578,0,0,0-.149-1.392h.09A3.631,3.631,0,0,0,158.178,124.883Z" transform="translate(-133.111 -116.17)"/><path d="M111.556,121.215a5.822,5.822,0,0,1,2.476-2.3,5.352,5.352,0,0,0,1.226,3.111.684.684,0,1,0,1.029-.9,3.724,3.724,0,0,1-.374-4.267c.822-1.363,3.091-2.5,5.275-2.639a4.948,4.948,0,0,1,4.264,1.617.683.683,0,1,0,1.089-.826l-.019-.024a5.382,5.382,0,0,0-1.151-1.062,8.861,8.861,0,0,1,4.721-.546c1.288.181,3.514.785,3.943,2.8a.684.684,0,0,0,.664.541.7.7,0,0,0,.146-.015.684.684,0,0,0,.527-.81v0a4.175,4.175,0,0,0-.473-1.206,6.886,6.886,0,0,1,4.18,1.353,8.01,8.01,0,0,1,1.443,1.359q.27-.71.515-1.451a9.427,9.427,0,0,0-1.16-1.014,8.041,8.041,0,0,0-6.068-1.508,7.177,7.177,0,0,0-3.526-1.394c-2.28-.32-5.1.1-6.283,1.206a7.284,7.284,0,0,0-2.9-.371c-2.635.17-5.309,1.558-6.359,3.3a5.015,5.015,0,0,0-.534,1.232,7.039,7.039,0,0,0-3.326,2.386Q111.195,120.5,111.556,121.215Z" transform="translate(-110.877 -111.925)"/><path d="M169.146,130.774a.684.684,0,1,0,.465,1.286,10.121,10.121,0,0,1,1.036-.311q.417-.746.806-1.539A8.54,8.54,0,0,0,169.146,130.774Z" transform="translate(-142.965 -122.072)"/><path d="M121.691,135.916a.683.683,0,0,0-1.363.1,1.631,1.631,0,0,1-1.07,1.84,2.865,2.865,0,0,1-2.216-.174c.388.569.8,1.133,1.238,1.689.024,0,.047,0,.07,0a3.911,3.911,0,0,0,1.382-.237,3.007,3.007,0,0,0,1.958-3.227Z" transform="translate(-114.298 -124.889)"/><path d="M130.959,124.3c1.011-.636,2.3-.367,3.46.72l.021.02a.683.683,0,1,0,.915-1.016c-1.926-1.813-3.91-1.644-5.121-.882a3.208,3.208,0,0,0-1.489,3.563.684.684,0,0,0,.648.477.672.672,0,0,0,.21-.033.683.683,0,0,0,.445-.858A1.832,1.832,0,0,1,130.959,124.3Z" transform="translate(-120.738 -117.848)"/><path d="M166.417,142.1l-.934.908q.145-.049.295-.084C165.993,142.657,166.205,142.381,166.417,142.1Z" transform="translate(-141.183 -128.672)"/><path d="M133.348,142.288a9.726,9.726,0,0,0,2.084.373,33.077,33.077,0,0,0,6.97-5.3c.037-.113.075-.227.109-.344a3.334,3.334,0,0,1,.134-.448l-4.311,4.191a6.116,6.116,0,0,1-4.768.175,5.526,5.526,0,0,1-3.408-2.725,6.418,6.418,0,0,1-.38-4.854c.649-2.009,3.272-2.287,4.757-2.423,1.08.21,1.364.562,1.432.707a.812.812,0,0,1-.116.707.684.684,0,1,0,1.188.677,2.1,2.1,0,0,0,.166-1.964,2.043,2.043,0,0,0-.611-.748,2.416,2.416,0,0,0,.545-.565,3.015,3.015,0,0,0,.346-2.39.683.683,0,0,0-1.336.288,1.744,1.744,0,0,1-.148,1.341,1.22,1.22,0,0,1-.816.5c-.16.03-.392.049-.671.075-1.652.15-5.091.461-6.03,3.372a7.807,7.807,0,0,0,.47,5.909c.081.154.172.3.263.446-.072.008-.15.013-.223.02A32.524,32.524,0,0,0,133.348,142.288Z" transform="translate(-120.443 -120.188)"/><path d="M160.769,146.18l2.1-2.04A3.384,3.384,0,0,0,160.769,146.18Z" transform="translate(-138.566 -129.804)"/></g><g transform="translate(27.389 12.958)"><g transform="translate(0.189 0.189)"><rect class="d" width="0.928" height="5.133" rx="0.464" transform="matrix(-0.956, -0.292, 0.292, -0.956, 0.951, 5.244)"/><path class="d" d="M164.382,99.146a.576.576,0,0,1-.17-.026l-.095-.029a.582.582,0,0,1-.385-.725l1.259-4.116a.582.582,0,0,1,.726-.386l.094.028a.583.583,0,0,1,.386.726l-1.259,4.116a.583.583,0,0,1-.556.412Zm-.167-.373.094.028a.248.248,0,0,0,.31-.164l1.259-4.116a.248.248,0,0,0-.165-.309l-.094-.028a.247.247,0,0,0-.189.018.244.244,0,0,0-.121.146l-1.259,4.116a.249.249,0,0,0,.165.31Z" transform="translate(-163.706 -93.838)"/></g><path class="d" d="M164.32,99.141a.652.652,0,0,1-.194-.029.667.667,0,0,1-.442-.831l1.23-4.021a.666.666,0,0,1,1.274.389l-1.23,4.021A.667.667,0,0,1,164.32,99.141Zm1.231-4.949a.263.263,0,0,0-.251.186L164.07,98.4a.263.263,0,0,0,.5.154l1.23-4.021a.262.262,0,0,0-.174-.328A.265.265,0,0,0,165.551,94.192Z" transform="translate(-163.488 -93.622)"/><path class="d" d="M164.113,99.1a.815.815,0,0,1-.244-.036.833.833,0,0,1-.552-1.039L164.547,94a.834.834,0,0,1,1.04-.552.833.833,0,0,1,.552,1.039l-1.23,4.022A.839.839,0,0,1,164.113,99.1Zm1.23-5.352a.5.5,0,0,0-.478.353l-1.23,4.021a.5.5,0,0,0,.331.623.513.513,0,0,0,.623-.331l1.23-4.021a.5.5,0,0,0-.477-.644Zm-1.23,4.949a.434.434,0,0,1-.125-.019.429.429,0,0,1-.285-.537l1.23-4.021a.433.433,0,0,1,.534-.286.429.429,0,0,1,.287.537l-1.23,4.021A.43.43,0,0,1,164.113,98.7Zm1.23-4.546a.1.1,0,0,0-.092.067l-1.23,4.022a.1.1,0,0,0,.007.073.1.1,0,0,0,.057.047.1.1,0,0,0,.119-.063l1.23-4.021a.1.1,0,0,0-.007-.073.1.1,0,0,0-.057-.047Z" transform="translate(-163.28 -93.413)"/></g><g transform="translate(7.817 12.91)"><g transform="translate(0.187 0.187)"><rect class="d" width="0.928" height="5.133" rx="0.464" transform="matrix(0.933, -0.359, 0.359, 0.933, 0.046, 0.379)"/><path class="d" d="M121.847,98.94a.588.588,0,0,1-.237-.05.576.576,0,0,1-.307-.322l-1.546-4.017a.582.582,0,0,1,.334-.752l.093-.036a.582.582,0,0,1,.752.334l1.545,4.018a.582.582,0,0,1-.334.751l-.093.036A.572.572,0,0,1,121.847,98.94Zm-1.454-4.882a.235.235,0,0,0-.088.017l-.093.035a.248.248,0,0,0-.142.32l1.545,4.018a.249.249,0,0,0,.32.142l.093-.035a.248.248,0,0,0,.142-.32l-1.545-4.017A.249.249,0,0,0,120.393,94.058Z" transform="translate(-119.72 -93.724)"/></g><g transform="translate(0 0)"><path class="d" d="M121.851,98.936a.673.673,0,0,1-.271-.058.662.662,0,0,1-.351-.369l-1.509-3.925a.666.666,0,0,1,1.242-.478l1.509,3.925a.666.666,0,0,1-.382.86h0A.668.668,0,0,1,121.851,98.936Zm-1.511-4.853a.263.263,0,0,0-.244.356l1.509,3.925a.263.263,0,1,0,.49-.189l-1.509-3.925a.265.265,0,0,0-.246-.168Z" transform="translate(-119.508 -93.513)"/><path class="d" d="M121.642,98.894a.833.833,0,0,1-.339-.072.824.824,0,0,1-.439-.462l-1.509-3.924a.833.833,0,0,1,1.554-.6l1.509,3.925a.832.832,0,0,1-.776,1.131Zm-1.511-5.256a.5.5,0,0,0-.464.678l1.509,3.924a.5.5,0,0,0,.263.276.5.5,0,0,0,.668-.634L120.6,93.958a.5.5,0,0,0-.263-.276A.507.507,0,0,0,120.132,93.638Zm1.511,4.853a.432.432,0,0,1-.4-.275l-1.509-3.925a.429.429,0,0,1,.8-.308l1.509,3.925a.43.43,0,0,1-.4.584Zm-1.511-4.45a.107.107,0,0,0-.036.007.1.1,0,0,0-.051.05.1.1,0,0,0,0,.073l1.509,3.925a.089.089,0,0,0,.051.053.094.094,0,0,0,.073,0,.1.1,0,0,0,.054-.123L120.222,94.1a.1.1,0,0,0-.051-.053Z" transform="translate(-119.3 -93.304)"/></g></g><g transform="translate(18.186 9.429)"><g transform="translate(0.199 0.199)"><rect class="d" width="0.959" height="7.646" rx="0.48" transform="translate(0.582 0.143) rotate(3.295)"/><path class="d" d="M143.744,93.905h-.034l-.1-.006a.6.6,0,0,1-.559-.629l.39-6.778a.594.594,0,0,1,.628-.56l.1.006a.6.6,0,0,1,.56.628l-.39,6.778A.6.6,0,0,1,143.744,93.905Zm-.015-.334a.265.265,0,0,0,.276-.247l.39-6.778a.263.263,0,0,0-.247-.276l-.1-.006a.266.266,0,0,0-.276.246l-.39,6.778a.263.263,0,0,0,.246.276Z" transform="translate(-143.046 -85.93)"/></g><path class="d" d="M143.656,93.9h-.04a.682.682,0,0,1-.641-.719l.384-6.676a.681.681,0,0,1,1.36.078l-.384,6.676A.682.682,0,0,1,143.656,93.9Zm.384-7.635a.279.279,0,0,0-.278.262l-.384,6.676a.278.278,0,1,0,.556.032l.384-6.675a.279.279,0,0,0-.262-.294Z" transform="translate(-142.807 -85.693)"/><path class="d" d="M143.447,93.856h-.05a.85.85,0,0,1-.8-.895l.384-6.676a.841.841,0,0,1,.283-.584.832.832,0,0,1,.613-.214.848.848,0,0,1,.8.895l-.384,6.676A.848.848,0,0,1,143.447,93.856Zm.384-8.038a.517.517,0,0,0-.514.485l-.384,6.676a.516.516,0,0,0,.485.543l.029.167v-.167a.515.515,0,0,0,.514-.485l.384-6.676a.515.515,0,0,0-.484-.543Zm-.391,7.635h-.015a.447.447,0,0,1-.423-.47l.385-6.676a.444.444,0,0,1,.444-.419h.015a.445.445,0,0,1,.43.47l-.384,6.675A.447.447,0,0,1,143.441,93.453Zm.391-7.4v.167a.112.112,0,0,0-.111.105L143.336,93a.111.111,0,0,0,.105.117h0a.111.111,0,0,0,.114-.105l.384-6.675a.114.114,0,0,0-.028-.081.11.11,0,0,0-.077-.037Z" transform="translate(-142.599 -85.484)"/></g><g transform="translate(0.403 0.403)"><path d="M120.682,65.211a.51.51,0,0,0-.126.046l-17.647,9.467a.5.5,0,0,0-.27.455c-.056,11.313,2.25,18.525,5.65,23.584s7.87,7.936,12.016,10.62a.5.5,0,0,0,.534,0c4.172-2.642,8.671-5.475,12.121-10.5s5.828-12.214,5.884-23.527a.5.5,0,0,0-.265-.457L121.028,65.26a.5.5,0,0,0-.346-.049Zm.1,1.069,17.036,9.356c-.1,10.994-2.4,17.89-5.691,22.68-3.249,4.731-7.462,7.455-11.553,10.047-4.066-2.632-8.252-5.4-11.453-10.161-3.24-4.821-5.478-11.74-5.466-22.735Z" transform="translate(-102.638 -65.2)"/></g><path d="M120.071,109.361a.906.906,0,0,1-.484-.139l-.07-.046c-4.049-2.62-8.637-5.59-12.065-10.69-3.9-5.8-5.769-13.59-5.718-23.811a.9.9,0,0,1,.485-.809L119.863,64.4a.9.9,0,0,1,.229-.085h0a.915.915,0,0,1,.622.088l17.556,9.644a.9.9,0,0,1,.474.821c-.051,10.213-2,17.983-5.955,23.745-3.48,5.066-8.1,7.991-12.172,10.571l-.065.041A.919.919,0,0,1,120.071,109.361Zm.195-44.258-.024.009L102.6,74.578a.1.1,0,0,0-.057.092c-.05,10.064,1.776,17.7,5.582,23.367,3.335,4.963,7.656,7.759,11.833,10.463l.067.043a.1.1,0,0,0,.1,0l.062-.039c4.2-2.663,8.553-5.416,11.939-10.346,3.862-5.625,5.763-13.246,5.814-23.3a.1.1,0,0,0-.053-.1l-17.556-9.643A.1.1,0,0,0,120.266,65.1Zm-.193,43.237-.217-.141c-3.869-2.5-8.254-5.344-11.568-10.275-3.735-5.558-5.545-13.068-5.534-22.96v-.241l17.533-9.4L137.725,74.9l0,.241c-.087,9.892-1.972,17.384-5.762,22.9-3.364,4.9-7.777,7.693-11.67,10.16ZM103.56,75.206c.018,9.608,1.784,16.894,5.4,22.269,3.16,4.7,7.37,7.479,11.12,9.908,3.774-2.392,8.011-5.125,11.219-9.8,3.666-5.339,5.5-12.607,5.618-22.214l-16.633-9.135Z" transform="translate(-101.733 -64.295)"/><g transform="translate(52.919 7.6)"><path class="d" d="M223.612,81.373a2.963,2.963,0,1,1-2.963,3A2.961,2.961,0,0,1,223.612,81.373Zm-2.384,27.156V90.19h4.806v20.976Z" transform="translate(-220.649 -81.373)"/></g><g transform="translate(63.434 15.988)"><path class="d" d="M244.276,124.494V100.618h4.661v2.168a6.216,6.216,0,0,1,5.456-2.565c5.2,0,8.2,3.975,8.2,9.25,0,5.384-3.361,9.359-8.383,9.359a6.246,6.246,0,0,1-5.131-2.169v10.466Zm9.178-19.973c-2.457,0-4.444,1.842-4.444,4.986s1.987,5.023,4.444,5.023,4.408-1.843,4.408-5.023C257.862,106.364,255.911,104.521,253.454,104.521Z" transform="translate(-244.276 -100.221)"/></g><g transform="translate(85.545 16.24)"><path class="c" d="M304.8,105.7a7.254,7.254,0,0,0-1.445-.145c-2.456,0-4.589,1.193-4.589,5.023v8.13h-4.806V100.934h4.661v2.638c1.084-2.349,3.541-2.783,5.058-2.783a10.825,10.825,0,0,1,1.12.073Z" transform="translate(-293.964 -100.789)"/></g><g transform="translate(98.262 15.843)"><path class="c" d="M341.187,109.328a9.323,9.323,0,1,1-9.322-9.431A9.127,9.127,0,0,1,341.187,109.328Zm-4.806,0c0-3.36-2.168-5.058-4.516-5.058s-4.517,1.7-4.517,5.058c0,3.325,2.168,5.059,4.517,5.059S336.38,112.688,336.38,109.328Z" transform="translate(-322.541 -99.897)"/></g><g transform="translate(118.569 11.073)"><path class="c" d="M376.157,94.49h3.577v4.264h-3.577V106.2c0,1.554.723,2.06,2.1,2.06a6.953,6.953,0,0,0,1.481-.145v3.974a7.121,7.121,0,0,1-2.71.434c-3.469,0-5.637-2.06-5.637-5.492V98.753h-3.216V94.49h.9a2.561,2.561,0,0,0,2.746-2.818V89.178h4.336Z" transform="translate(-368.172 -89.178)"/></g><g transform="translate(171.824 11.073)"><path class="c" d="M495.829,94.49h3.578v4.264h-3.578V106.2c0,1.554.723,2.06,2.1,2.06a6.957,6.957,0,0,0,1.481-.145v3.974a7.122,7.122,0,0,1-2.711.434c-3.469,0-5.637-2.06-5.637-5.492V98.753h-3.216V94.49h.9a2.561,2.561,0,0,0,2.746-2.818V89.178h4.336Z" transform="translate(-487.844 -89.178)"/></g><g transform="translate(132.696 15.843)"><path class="c" d="M417.189,113.121c-.9,3.072-3.722,5.637-8.094,5.637-4.878,0-9.178-3.5-9.178-9.5,0-5.673,4.192-9.359,8.744-9.359,5.493,0,8.781,3.5,8.781,9.214,0,.687-.072,1.409-.072,1.482H404.651a4.33,4.33,0,0,0,4.48,4.047,3.926,3.926,0,0,0,4.047-2.711Zm-4.481-5.817c-.072-1.771-1.228-3.5-3.974-3.5a3.847,3.847,0,0,0-3.975,3.5Z" transform="translate(-399.917 -99.897)"/></g><g transform="translate(152.676 15.843)"><path class="c" d="M449.62,109.328c0,3.216,2.1,5.023,4.553,5.023a4.069,4.069,0,0,0,4.083-3l4.227,1.409a8.253,8.253,0,0,1-8.31,6,9.2,9.2,0,0,1-9.359-9.431,9.1,9.1,0,0,1,9.214-9.431c4.842,0,7.588,3,8.347,6l-4.3,1.445a3.877,3.877,0,0,0-3.939-3C451.68,104.341,449.62,106.112,449.62,109.328Z" transform="translate(-444.814 -99.897)"/></g></svg>