<svg xmlns="http://www.w3.org/2000/svg" width="19" height="19" viewBox="0 0 19 19">
  <g id="Group_223" data-name="Group 223" transform="translate(-948 -375)">
    <g id="Ellipse_44" data-name="Ellipse 44" transform="translate(948 375)" fill="none" stroke="#fff" stroke-width="1">
      <circle cx="9.5" cy="9.5" r="9.5" stroke="none"/>
      <circle cx="9.5" cy="9.5" r="9" fill="none"/>
    </g>
    <path id="Icon_awesome-question" data-name="Icon awesome-question" d="M4.824,0a3.321,3.321,0,0,0-2.95,1.56.412.412,0,0,0,.089.564l.739.561a.411.411,0,0,0,.57-.071,1.663,1.663,0,0,1,1.419-.848c.527,0,1.18.339,1.18.851,0,.387-.319.585-.84.877-.607.34-1.411.764-1.411,1.824v.168a.411.411,0,0,0,.411.411H5.273a.411.411,0,0,0,.411-.411v-.1c0-.735,2.147-.765,2.147-2.753A2.945,2.945,0,0,0,4.824,0ZM4.652,6.4A1.187,1.187,0,1,0,5.84,7.589,1.189,1.189,0,0,0,4.652,6.4Z" transform="translate(953.196 379.987)" fill="#fff"/>
  </g>
</svg>
