<svg xmlns="http://www.w3.org/2000/svg" width="22.01" height="16.553" viewBox="0 0 22.01 16.553">
  <g id="Icon_feather-eye" data-name="Icon feather-eye" transform="translate(-0.5 -5)">
    <path id="Path_239" data-name="Path 239" d="M3.534,15.99l5.032,3.857h3.878l4.586-1.336L21.52,13.75l-2.06-2.417L14.923,7.356l-4.461-1.3-3.246,1.3L3.534,9.683l-1.2,1.649V13.75Z" transform="translate(0.237 0.015)" fill="#2673e5"/>
    <path id="Path_159" data-name="Path 159" d="M1.5,13.276S5.138,6,11.505,6,21.51,13.276,21.51,13.276s-3.638,7.276-10.005,7.276S1.5,13.276,1.5,13.276Z" fill="none" stroke="#000" stroke-linecap="round" stroke-linejoin="round" stroke-width="2"/>
    <path id="Path_160" data-name="Path 160" d="M18.957,16.229A2.729,2.729,0,1,1,16.229,13.5,2.729,2.729,0,0,1,18.957,16.229Z" transform="translate(-4.724 -2.952)" fill="#ffce00" stroke="#000" stroke-linecap="round" stroke-linejoin="round" stroke-width="2"/>
  </g>
</svg>
