<svg id="Component_21_1" data-name="Component 21 – 1" xmlns="http://www.w3.org/2000/svg" width="132.001" height="132.037" viewBox="0 0 132.001 132.037">
  <g id="Group_289" data-name="Group 289" transform="translate(-790.42 -234.727)">
    <g id="noun_Office_3302992" transform="translate(824.987 271.276)">
      <path id="Path_173" data-name="Path 173" d="M-.265.649h20.7l2.1,40.794H-.265Z" transform="translate(42.688 16.43)" fill="#002d78"/>
      <path id="Path_174" data-name="Path 174" d="M-.265.649H30.51V54.677H-.265Z" transform="translate(5.231 3.196)" fill="#002d78"/>
      <g id="Path_159" data-name="Path 159" transform="translate(-0.491 -2.308)" fill="#06c">
        <path d="M 66.89550018310547 61.04611968994141 L 65.89550018310547 61.04611968994141 L 0.4909987449645996 61.04611968994141 L -0.5090012550354004 61.04611968994141 L -0.5090012550354004 60.04611968994141 L -0.5090012550354004 5.342081069946289 C -0.5090012550354004 3.11768102645874 1.300678730010986 1.308001041412354 3.525078773498535 1.308001041412354 L 36.71438980102539 1.308001041412354 C 38.93994903564453 1.308001041412354 40.75056838989258 3.11768102645874 40.75056838989258 5.342081069946289 L 40.75056838989258 56.01205062866211 L 41.78463745117188 56.01205062866211 L 41.78463745117188 19.24528121948242 L 41.78463745117188 18.24528121948242 L 42.78463745117188 18.24528121948242 L 62.85721969604492 18.24528121948242 C 65.08111572265625 18.24528121948242 66.89268493652344 20.05439186096191 66.89550018310547 22.27809143066406 L 66.89550018310547 60.04611968994141 L 66.89550018310547 61.04611968994141 Z M 47.49975967407227 54.1186408996582 L 48.53593826293945 54.1186408996582 L 48.53593826293945 51.45263290405273 L 47.49975967407227 51.45263290405273 L 47.49975967407227 54.1186408996582 Z M 60.14420700073242 54.11654281616211 L 61.17827987670898 54.11654281616211 L 61.17827987670898 51.45051956176758 L 60.14420700073242 51.45051956176758 L 60.14420700073242 54.11654281616211 Z M 53.82302856445312 54.11654281616211 L 54.85921859741211 54.11654281616211 L 54.85921859741211 51.45051956176758 L 53.82302856445312 51.45051956176758 L 53.82302856445312 54.11654281616211 Z M 28.65220832824707 52.89364242553711 L 33.28754043579102 52.89364242553711 L 33.28754043579102 51.85956192016602 L 28.65220832824707 51.85956192016602 L 28.65220832824707 52.89364242553711 Z M 17.80205917358398 52.89364242553711 L 22.43949890136719 52.89364242553711 L 22.43949890136719 51.85956192016602 L 17.80205917358398 51.85956192016602 L 17.80205917358398 52.89364242553711 Z M 6.949808597564697 52.89364242553711 L 11.58513832092285 52.89364242553711 L 11.58513832092285 51.85956192016602 L 6.949808597564697 51.85956192016602 L 6.949808597564697 52.89364242553711 Z M 60.14420700073242 45.35799026489258 L 61.17827987670898 45.35799026489258 L 61.17827987670898 42.69197082519531 L 60.14420700073242 42.69197082519531 L 60.14420700073242 45.35799026489258 Z M 53.82302856445312 45.35799026489258 L 54.85921859741211 45.35799026489258 L 54.85921859741211 42.69197082519531 L 53.82302856445312 42.69197082519531 L 53.82302856445312 45.35799026489258 Z M 47.49975967407227 45.35799026489258 L 48.53593826293945 45.35799026489258 L 48.53593826293945 42.69197082519531 L 47.49975967407227 42.69197082519531 L 47.49975967407227 45.35799026489258 Z M 28.65220832824707 44.41551971435547 L 33.28754043579102 44.41551971435547 L 33.28754043579102 43.37722015380859 L 28.65220832824707 43.37722015380859 L 28.65220832824707 44.41551971435547 Z M 17.80205917358398 44.41551971435547 L 22.43949890136719 44.41551971435547 L 22.43949890136719 43.37722015380859 L 17.80205917358398 43.37722015380859 L 17.80205917358398 44.41551971435547 Z M 6.949808597564697 44.41551971435547 L 11.58513832092285 44.41551971435547 L 11.58513832092285 43.37722015380859 L 6.949808597564697 43.37722015380859 L 6.949808597564697 44.41551971435547 Z M 60.14420700073242 36.59523010253906 L 61.17827987670898 36.59523010253906 L 61.17827987670898 33.93341064453125 L 60.14420700073242 33.93341064453125 L 60.14420700073242 36.59523010253906 Z M 53.82302856445312 36.59523010253906 L 54.85921859741211 36.59523010253906 L 54.85921859741211 33.93341064453125 L 53.82302856445312 33.93341064453125 L 53.82302856445312 36.59523010253906 Z M 47.49975967407227 36.59523010253906 L 48.53593826293945 36.59523010253906 L 48.53593826293945 33.93341064453125 L 47.49975967407227 33.93341064453125 L 47.49975967407227 36.59523010253906 Z M 28.65220832824707 35.93527221679688 L 33.28754043579102 35.93527221679688 L 33.28754043579102 34.89698028564453 L 28.65220832824707 34.89698028564453 L 28.65220832824707 35.93527221679688 Z M 17.80205917358398 35.93527221679688 L 22.43949890136719 35.93527221679688 L 22.43949890136719 34.89698028564453 L 17.80205917358398 34.89698028564453 L 17.80205917358398 35.93527221679688 Z M 6.949808597564697 35.93527221679688 L 11.58513832092285 35.93527221679688 L 11.58513832092285 34.89698028564453 L 6.949808597564697 34.89698028564453 L 6.949808597564697 35.93527221679688 Z M 60.14420700073242 27.83667182922363 L 61.17827987670898 27.83667182922363 L 61.17827987670898 25.17064094543457 L 60.14420700073242 25.17064094543457 L 60.14420700073242 27.83667182922363 Z M 53.82302856445312 27.83667182922363 L 54.85921859741211 27.83667182922363 L 54.85921859741211 25.17064094543457 L 53.82302856445312 25.17064094543457 L 53.82302856445312 27.83667182922363 Z M 47.49975967407227 27.83667182922363 L 48.53593826293945 27.83667182922363 L 48.53593826293945 25.17064094543457 L 47.49975967407227 25.17064094543457 L 47.49975967407227 27.83667182922363 Z M 28.65220832824707 27.45294189453125 L 33.28754043579102 27.45294189453125 L 33.28754043579102 26.41886138916016 L 28.65220832824707 26.41886138916016 L 28.65220832824707 27.45294189453125 Z M 17.80205917358398 27.45294189453125 L 22.43949890136719 27.45294189453125 L 22.43949890136719 26.41886138916016 L 17.80205917358398 26.41886138916016 L 17.80205917358398 27.45294189453125 Z M 6.949808597564697 27.45294189453125 L 11.58513832092285 27.45294189453125 L 11.58513832092285 26.41886138916016 L 6.949808597564697 26.41886138916016 L 6.949808597564697 27.45294189453125 Z M 28.65220832824707 18.97692108154297 L 33.28754043579102 18.97692108154297 L 33.28754043579102 17.93862152099609 L 28.65220832824707 17.93862152099609 L 28.65220832824707 18.97692108154297 Z M 17.80205917358398 18.97692108154297 L 22.43949890136719 18.97692108154297 L 22.43949890136719 17.93862152099609 L 17.80205917358398 17.93862152099609 L 17.80205917358398 18.97692108154297 Z M 6.949808597564697 18.97692108154297 L 11.58513832092285 18.97692108154297 L 11.58513832092285 17.93862152099609 L 6.949808597564697 17.93862152099609 L 6.949808597564697 18.97692108154297 Z M 28.65220832824707 10.4945707321167 L 33.28754043579102 10.4945707321167 L 33.28754043579102 9.460491180419922 L 28.65220832824707 9.460491180419922 L 28.65220832824707 10.4945707321167 Z M 17.80205917358398 10.4945707321167 L 22.43949890136719 10.4945707321167 L 22.43949890136719 9.460491180419922 L 17.80205917358398 9.460491180419922 L 17.80205917358398 10.4945707321167 Z M 6.949808597564697 10.4945707321167 L 11.58513832092285 10.4945707321167 L 11.58513832092285 9.460491180419922 L 6.949808597564697 9.460491180419922 L 6.949808597564697 10.4945707321167 Z" stroke="none"/>
        <path d="M 3.525077819824219 2.308002471923828 C 1.857276916503906 2.308002471923828 0.490997314453125 3.674282073974609 0.490997314453125 5.342082977294922 L 0.490997314453125 60.04611968994141 L 65.89550018310547 60.04611968994141 L 65.89550018310547 22.27936172485352 C 65.89338684082031 20.6115608215332 64.52710723876953 19.24528121948242 62.85721969604492 19.24528121948242 L 42.78463745117188 19.24528121948242 L 42.78463745117188 57.01203918457031 L 39.75056838989258 57.01203918457031 L 39.75056838989258 5.342071533203125 C 39.75056838989258 3.674282073974609 38.3842887878418 2.308002471923828 36.71438598632812 2.308002471923828 L 3.525077819824219 2.308002471923828 M 12.58514022827148 11.49457168579102 L 12.58724975585938 11.49457168579102 L 12.58514022827148 11.49457168579102 L 5.949810028076172 11.49457168579102 L 5.949810028076172 8.460491180419922 L 12.58514022827148 8.460491180419922 L 12.58514022827148 11.49457168579102 M 23.43949890136719 11.49457168579102 L 16.80205917358398 11.49457168579102 L 16.80205917358398 8.460491180419922 L 23.43949890136719 8.460491180419922 L 23.43949890136719 11.49457168579102 M 34.28754043579102 11.49457168579102 L 27.6522102355957 11.49457168579102 L 27.6522102355957 8.460491180419922 L 34.28754043579102 8.460491180419922 L 34.28754043579102 11.49457168579102 M 12.58514022827148 19.97692108154297 L 12.58724975585938 19.97692108154297 L 12.58514022827148 19.97692108154297 L 5.949810028076172 19.97692108154297 L 5.949810028076172 16.93862152099609 L 12.58514022827148 16.93862152099609 L 12.58514022827148 19.97692108154297 M 23.43949890136719 19.97692108154297 L 16.80205917358398 19.97692108154297 L 16.80205917358398 16.93862152099609 L 23.43949890136719 16.93862152099609 L 23.43949890136719 19.97692108154297 M 34.28754043579102 19.97692108154297 L 27.6522102355957 19.97692108154297 L 27.6522102355957 16.93862152099609 L 34.28754043579102 16.93862152099609 L 34.28754043579102 19.97692108154297 M 49.53593826293945 28.836669921875 L 46.49975967407227 28.836669921875 L 46.49975967407227 24.1706428527832 L 49.53593826293945 24.1706428527832 L 49.53593826293945 28.836669921875 M 55.85920715332031 28.836669921875 L 52.82302856445312 28.836669921875 L 52.82302856445312 24.1706428527832 L 55.85920715332031 24.1706428527832 L 55.85920715332031 28.836669921875 M 62.17827987670898 28.836669921875 L 59.14421081542969 28.836669921875 L 59.14421081542969 24.1706428527832 L 62.17827987670898 24.1706428527832 L 62.17827987670898 28.836669921875 M 12.58514022827148 28.45294189453125 L 12.58724975585938 28.45294189453125 L 12.58514022827148 28.45294189453125 L 5.949810028076172 28.45294189453125 L 5.949810028076172 25.41886138916016 L 12.58514022827148 25.41886138916016 L 12.58514022827148 28.45294189453125 M 23.43949890136719 28.45294189453125 L 16.80205917358398 28.45294189453125 L 16.80205917358398 25.41886138916016 L 23.43949890136719 25.41886138916016 L 23.43949890136719 28.45294189453125 M 34.28754043579102 28.45294189453125 L 27.6522102355957 28.45294189453125 L 27.6522102355957 25.41886138916016 L 34.28754043579102 25.41886138916016 L 34.28754043579102 28.45294189453125 M 49.53593826293945 37.59522247314453 L 46.49975967407227 37.59522247314453 L 46.49975967407227 32.93341064453125 L 49.53593826293945 32.93341064453125 L 49.53593826293945 37.59522247314453 M 55.85920715332031 37.59522247314453 L 52.82302856445312 37.59522247314453 L 52.82302856445312 32.93341064453125 L 55.85920715332031 32.93341064453125 L 55.85920715332031 37.59522247314453 M 62.17827987670898 37.59522247314453 L 59.14421081542969 37.59522247314453 L 59.14421081542969 32.93341064453125 L 62.17827987670898 32.93341064453125 L 62.17827987670898 37.59522247314453 M 12.58514022827148 36.93527221679688 L 12.58724975585938 36.93527221679688 L 12.58514022827148 36.93527221679688 L 5.949810028076172 36.93527221679688 L 5.949810028076172 33.89698028564453 L 12.58514022827148 33.89698028564453 L 12.58514022827148 36.93527221679688 M 23.43949890136719 36.93527221679688 L 16.80205917358398 36.93527221679688 L 16.80205917358398 33.89698028564453 L 23.43949890136719 33.89698028564453 L 23.43949890136719 36.93527221679688 M 34.28754043579102 36.93527221679688 L 27.6522102355957 36.93527221679688 L 27.6522102355957 33.89698028564453 L 34.28754043579102 33.89698028564453 L 34.28754043579102 36.93527221679688 M 49.53593826293945 46.35799026489258 L 46.49975967407227 46.35799026489258 L 46.49975967407227 41.69197082519531 L 49.53593826293945 41.69197082519531 L 49.53593826293945 46.35799026489258 M 55.85920715332031 46.35799026489258 L 52.82302856445312 46.35799026489258 L 52.82302856445312 41.69197082519531 L 55.85920715332031 41.69197082519531 L 55.85920715332031 46.35799026489258 M 62.17827987670898 46.35799026489258 L 59.14421081542969 46.35799026489258 L 59.14421081542969 41.69197082519531 L 62.17827987670898 41.69197082519531 L 62.17827987670898 46.35799026489258 M 12.58514022827148 45.41551971435547 L 12.58724975585938 45.41551971435547 L 12.58514022827148 45.41551971435547 L 5.949810028076172 45.41551971435547 L 5.949810028076172 42.37721252441406 L 12.58514022827148 42.37721252441406 L 12.58514022827148 45.41551971435547 M 23.43949890136719 45.41551971435547 L 16.80205917358398 45.41551971435547 L 16.80205917358398 42.37721252441406 L 23.43949890136719 42.37721252441406 L 23.43949890136719 45.41551971435547 M 34.28754043579102 45.41551971435547 L 27.6522102355957 45.41551971435547 L 27.6522102355957 42.37721252441406 L 34.28754043579102 42.37721252441406 L 34.28754043579102 45.41551971435547 M 55.85920715332031 55.11653900146484 L 52.82302856445312 55.11653900146484 L 52.82302856445312 50.45052337646484 L 55.85920715332031 50.45052337646484 L 55.85920715332031 55.11653900146484 M 62.17827987670898 55.11653900146484 L 59.14421081542969 55.11653900146484 L 59.14421081542969 50.45052337646484 L 62.17827987670898 50.45052337646484 L 62.17827987670898 55.11653900146484 M 49.53593826293945 55.1186408996582 L 46.49975967407227 55.1186408996582 L 46.49975967407227 50.45262908935547 L 49.53593826293945 50.45262908935547 L 49.53593826293945 55.1186408996582 M 12.58514022827148 53.89364242553711 L 12.58724975585938 53.89364242553711 L 12.58514022827148 53.89364242553711 L 5.949810028076172 53.89364242553711 L 5.949810028076172 50.85956192016602 L 12.58514022827148 50.85956192016602 L 12.58514022827148 53.89364242553711 M 23.43949890136719 53.89364242553711 L 16.80205917358398 53.89364242553711 L 16.80205917358398 50.85956192016602 L 23.43949890136719 50.85956192016602 L 23.43949890136719 53.89364242553711 M 34.28754043579102 53.89364242553711 L 27.6522102355957 53.89364242553711 L 27.6522102355957 50.85956192016602 L 34.28754043579102 50.85956192016602 L 34.28754043579102 53.89364242553711 M 3.525077819824219 0.3080024719238281 L 36.71438598632812 0.3080024719238281 C 39.49134826660156 0.3080024719238281 41.75056838989258 2.566272735595703 41.75056838989258 5.342071533203125 L 41.75056838989258 17.24528121948242 L 42.78463745117188 17.24528121948242 L 62.85721969604492 17.24528121948242 C 65.63182830810547 17.24528121948242 67.89199066162109 19.50242233276367 67.89550018310547 22.27683258056641 L 67.89550018310547 60.04611968994141 L 67.89550018310547 62.04611968994141 L 65.89550018310547 62.04611968994141 L 0.490997314453125 62.04611968994141 L -1.509002685546875 62.04611968994141 L -1.509002685546875 60.04611968994141 L -1.509002685546875 5.342082977294922 C -1.509002685546875 2.566280364990234 0.7492752075195312 0.3080024719238281 3.525077819824219 0.3080024719238281 Z" stroke="none" fill="#0f55a8"/>
      </g>
    </g>
    <path id="Path_236" data-name="Path 236" d="M2597.9,332.392l8.286-44.372h-9.6Z" transform="translate(-1730.498 -1.652)" fill="#ffce00"/>
  </g>
  <rect id="Rectangle_217" data-name="Rectangle 217" width="94.089" height="92.642" rx="12" transform="translate(8.469 35.476) rotate(-17)" fill="#a3abbd" opacity="0.2"/>
  <rect id="Rectangle_218" data-name="Rectangle 218" width="94.089" height="92.642" rx="12" transform="matrix(0.695, -0.719, 0.719, 0.695, 0, 67.682)" fill="#a3abbd" opacity="0.2"/>
</svg>
