<svg id="Component_14_1" data-name="Component 14 – 1" xmlns="http://www.w3.org/2000/svg" width="132.001" height="132.037" viewBox="0 0 132.001 132.037">
  <g id="noun_Art_2751957" transform="translate(22.192 -4.161)">
    <g id="Group_212" data-name="Group 212" transform="translate(12.068 39.038)">
      <path id="Path_168" data-name="Path 168" d="M48.238,78.144a6.245,6.245,0,0,1-3.116-3.118,1.743,1.743,0,0,0-1.563-.96h0A1.741,1.741,0,0,0,42,75.027a6.245,6.245,0,0,1-3.117,3.117,1.75,1.75,0,0,0,0,3.124A6.247,6.247,0,0,1,42,84.385a1.741,1.741,0,0,0,1.561.961h0a1.742,1.742,0,0,0,1.563-.961,6.249,6.249,0,0,1,3.116-3.116h0a1.751,1.751,0,0,0,0-3.124ZM43.56,83.292a7.964,7.964,0,0,0-3.585-3.586,7.966,7.966,0,0,0,3.585-3.585,7.972,7.972,0,0,0,3.586,3.585A7.979,7.979,0,0,0,43.56,83.292Z" transform="translate(-16.211 -17.292)" fill="#ffce00"/>
      <path id="Path_169" data-name="Path 169" d="M51.034,22.193a6.25,6.25,0,0,1,3.117,3.117,1.739,1.739,0,0,0,1.561.96h0a1.742,1.742,0,0,0,1.563-.96,6.251,6.251,0,0,1,3.117-3.118,1.751,1.751,0,0,0,0-3.124,6.248,6.248,0,0,1-3.116-3.118,1.741,1.741,0,0,0-1.563-.959h0a1.739,1.739,0,0,0-1.561.96,6.247,6.247,0,0,1-3.117,3.117,1.75,1.75,0,0,0,0,3.124Zm4.679-5.148A7.976,7.976,0,0,0,59.3,20.631a7.972,7.972,0,0,0-3.586,3.586,7.968,7.968,0,0,0-3.586-3.586A7.962,7.962,0,0,0,55.713,17.045Z" transform="translate(-16.877 -14.054)" fill="#ffce00"/>
      <path id="Path_170" data-name="Path 170" d="M80.12,61.057,63.146,44.083l6.533-6.533c.081-.081.162-.163.2-.212a13.375,13.375,0,0,0,3.041-5.061l1.388-4.261c0-.007.008-.013.01-.021l1.365-4.2A2.372,2.372,0,0,0,72.694,20.8l-4.2,1.367-.012.005-4.272,1.392a13.285,13.285,0,0,0-5.018,3l-.023.022-.017.015,0,0c-.07.062-.137.126-.209.2l-6.533,6.533L34.154,15.092A3.679,3.679,0,0,0,31.533,14h-.006A3.7,3.7,0,0,0,28.9,15.092l-2.1,2.1L16.03,27.956a3.74,3.74,0,0,0,0,5.257l7.1,7.093.435.435h0L29.521,46.7s0,.006.006.009l2.352,2.352s.009,0,.013.009l2.4,2.395L21.527,64.221a2.535,2.535,0,0,0,0,3.581l7.159,7.159a2.536,2.536,0,0,0,3.581,0L45.028,62.2l1.12,1.12s.005.01.009.014l2.352,2.352s.01.005.014.009l5.941,5.941s.005.01.009.014L56.825,74s.01.005.014.009L62,79.176a3.679,3.679,0,0,0,2.628,1.094h0a3.679,3.679,0,0,0,2.626-1.092L78.017,68.419l2.1-2.1a3.713,3.713,0,0,0,0-5.259ZM36.356,68.2l-3.366-3.365L64.5,33.322l3.365,3.366ZM37.991,50.43,49.013,39.415h0l4.062-4.063c.005,0,.006-.012.011-.017L59.8,28.62l3.365,3.366L31.654,63.5l-3.366-3.365ZM26.957,61.474l8.058,8.057L33.786,70.76,25.728,62.7ZM73.914,23.033a.509.509,0,0,1-.026.177L73,25.942l-2.453-2.452L73.28,22.6a.488.488,0,0,1,.165-.025.445.445,0,0,1,.191.048l.035.018a.585.585,0,0,1,.1.075A.482.482,0,0,1,73.914,23.033Zm-5.386,1.115,3.812,3.811-1.215,3.728a11.4,11.4,0,0,1-.432,1.1c-.047.105-.1.207-.152.311-.126.258-.259.514-.4.763-.06.1-.123.206-.186.308q-.239.383-.51.748c-.059.079-.114.161-.175.238-.038.049-.082.092-.121.141L61.194,27.34c.045-.036.085-.076.13-.112.1-.081.212-.157.319-.234.212-.155.429-.3.652-.443.119-.075.239-.148.36-.218.234-.135.474-.26.717-.379.111-.054.221-.112.334-.163a11.426,11.426,0,0,1,1.092-.429Zm-38.3-7.719a1.82,1.82,0,0,1,1.3-.538h0a1.8,1.8,0,0,1,1.284.536l0,0L51.069,34.679l-2.727,2.727L28.8,17.862ZM23.217,37.721l6.6-6.6a.734.734,0,0,1,1.015,0,.716.716,0,0,1,0,1.014h0l-6.6,6.6Zm8.316,8.314,6.6-6.6a.718.718,0,1,1,1.015,1.015l-6.6,6.6Zm4.09,4.089-1.737-1.737,6.6-6.6A2.608,2.608,0,1,0,36.8,38.1l-6.6,6.6-4.627-4.626,6.6-6.6a2.607,2.607,0,0,0,0-3.688,2.671,2.671,0,0,0-3.688,0l-6.6,6.6-4.508-4.506a1.842,1.842,0,0,1,0-2.589L27.461,19.2,47.005,38.743,37.243,48.5Zm-4.692,23.5a.642.642,0,0,1-.908,0l-7.159-7.159a.642.642,0,0,1,0-.908l1.523-1.523L32.454,72.1ZM48.164,62.664l6.6-6.6a.718.718,0,0,1,1.014,1.015l-6.6,6.6Zm8.316,8.315,6.6-6.6a.718.718,0,0,1,1.226.507.709.709,0,0,1-.21.507h0l-6.6,6.6Zm9.439,6.863a1.8,1.8,0,0,1-1.288.536h0a1.8,1.8,0,0,1-1.289-.538l-4.51-4.51,6.6-6.6a2.608,2.608,0,1,0-3.688-3.688l-6.6,6.6-4.627-4.627,6.6-6.6h0a2.608,2.608,0,0,0-3.689-3.688l-6.6,6.6-.463-.463L57.75,49.487l9.131,9.132,9.131,9.132ZM78.785,64.977l0,0-1.434,1.434-9.131-9.132-9.131-9.132,2.727-2.727,16.97,16.97a1.821,1.821,0,0,1,.538,1.3A1.8,1.8,0,0,1,78.785,64.977Z" transform="translate(-14.952 -14)" fill="#2673e5" stroke="#2673e5" stroke-width="1"/>
    </g>
  </g>
  <rect id="Rectangle_131" data-name="Rectangle 131" width="94.089" height="92.642" rx="12" transform="translate(7.469 35.476) rotate(-17)" fill="#a3abbd" opacity="0.2"/>
  <rect id="Rectangle_130" data-name="Rectangle 130" width="94.089" height="92.642" rx="12" transform="matrix(0.695, -0.719, 0.719, 0.695, 0, 67.682)" fill="#a3abbd" opacity="0.2"/>
</svg>
