<svg id="Component_21_1" data-name="Component 21 – 1" xmlns="http://www.w3.org/2000/svg" width="132.001" height="132.037" viewBox="0 0 132.001 132.037">
  <g id="noun_Art_2751957" transform="translate(22.192 -5.161)">
    <g id="Group_212" data-name="Group 212" transform="translate(12.068 39.038)">
      <path id="Path_238" data-name="Path 238" d="M15.229,57.11l13.7-14.142,2.236,3.684L45.784,61.268,49.41,59l11.8-12.344-.993-2.561L44.333,28.274,52.3,19.127,56.1,7.294,42.666,11.616l-7.807,7.511L16.424,1.239H13.715L.581,15.131l1.96,4L8.57,24.441l6.658,6.775,4.194,3.722L9.45,44.845,5.927,48.981Z" transform="translate(-0.04 -0.085)" fill="#2673e5"/>
      <path id="Path_170" data-name="Path 170" d="M75.652,57.83l-15.81-15.81,6.085-6.085c.076-.076.15-.152.188-.2a12.458,12.458,0,0,0,2.832-4.714l1.293-3.969c0-.007.007-.012.009-.019l1.272-3.911a2.209,2.209,0,0,0-2.786-2.789l-3.913,1.273-.011.005-3.979,1.3a12.374,12.374,0,0,0-4.674,2.8l-.022.021-.016.014,0,0c-.065.058-.128.117-.195.185l-6.085,6.085-17-17A3.427,3.427,0,0,0,30.4,14h-.006a3.444,3.444,0,0,0-2.451,1.017l-1.959,1.958L15.956,27a3.483,3.483,0,0,0,0,4.9l6.61,6.607.4.405h0l5.548,5.546s0,.006.006.008l2.191,2.191s.008,0,.012.008l2.232,2.231L21.076,60.778a2.361,2.361,0,0,0,0,3.336l6.668,6.668a2.362,2.362,0,0,0,3.336,0L42.966,58.9l1.043,1.043s0,.009.009.013l2.191,2.191s.009,0,.013.008l5.533,5.534s0,.009.009.013l2.191,2.191s.009,0,.013.009l4.81,4.81a3.427,3.427,0,0,0,2.448,1.019h0a3.427,3.427,0,0,0,2.446-1.017L73.693,64.688l1.959-1.959a3.458,3.458,0,0,0,0-4.9ZM34.889,64.483l-3.135-3.134L61.106,32l3.135,3.135Zm1.523-16.551,10.266-10.26h0l3.784-3.785s.006-.011.01-.016l6.254-6.254,3.134,3.135L30.509,60.1l-3.135-3.134ZM26.134,58.219l7.506,7.5-1.145,1.145-7.5-7.506ZM69.872,22.414a.474.474,0,0,1-.025.165l-.83,2.545L66.733,22.84l2.547-.83a.455.455,0,0,1,.154-.023.415.415,0,0,1,.178.044l.032.017a.545.545,0,0,1,.1.07A.449.449,0,0,1,69.872,22.414Zm-5.016,1.038L68.406,27l-1.132,3.473a10.624,10.624,0,0,1-.4,1.023c-.044.1-.094.193-.141.289-.117.241-.241.478-.376.71-.056.1-.114.192-.173.287q-.223.357-.475.7c-.055.074-.107.15-.163.222-.035.045-.077.086-.113.131l-7.408-7.407c.041-.034.079-.071.121-.1.1-.076.2-.146.3-.218.2-.144.4-.282.607-.412.111-.07.222-.138.336-.2.218-.126.441-.242.668-.353.1-.051.206-.1.311-.152a10.642,10.642,0,0,1,1.017-.4Zm-35.671-7.19a1.7,1.7,0,0,1,1.206-.5h0a1.677,1.677,0,0,1,1.2.5l0,0,17,17-2.54,2.54-18.2-18.2ZM22.65,36.095,28.8,29.947a.684.684,0,0,1,.946,0,.667.667,0,0,1,0,.945h0L23.6,37.041ZM30.4,43.839l6.148-6.147a.669.669,0,1,1,.946.945l-6.148,6.147Zm3.81,3.808L32.587,46.03l6.147-6.147A2.429,2.429,0,1,0,35.3,36.447l-6.148,6.148-4.31-4.309,6.148-6.149a2.428,2.428,0,0,0,0-3.436,2.488,2.488,0,0,0-3.436,0L21.4,34.85l-4.2-4.2a1.716,1.716,0,0,1,0-2.411l9.4-9.4,18.2,18.2-9.092,9.092Zm-4.37,21.889a.6.6,0,0,1-.846,0l-6.668-6.668a.6.6,0,0,1,0-.846L23.74,60.6l7.514,7.515ZM45.887,59.328l6.147-6.146a.668.668,0,0,1,.945.946l-6.146,6.146Zm7.746,7.745,6.146-6.146a.668.668,0,0,1,1.142.472.66.66,0,0,1-.2.472h0l-6.146,6.147Zm8.792,6.393a1.678,1.678,0,0,1-1.2.5h0a1.678,1.678,0,0,1-1.2-.5l-4.2-4.2,6.146-6.146a2.429,2.429,0,0,0-3.436-3.436l-6.146,6.147-4.31-4.31,6.147-6.146h0a2.43,2.43,0,0,0-3.436-3.436l-6.147,6.146-.431-.431,10.6-10.6,8.505,8.506,8.505,8.506ZM74.409,61.482l0,0L73.071,62.82l-8.505-8.506L56.06,45.809l2.54-2.54L74.407,59.075a1.7,1.7,0,0,1,.5,1.21A1.676,1.676,0,0,1,74.409,61.482Z" transform="translate(-14.952 -14)" fill="#0f55a8" stroke="#0f55a8" stroke-width="1"/>
      <path id="Shape_Copy_4" data-name="Shape Copy 4" d="M6.245,2.332,7.077.389c.278-.518,1.11-.518,1.249,0l.833,1.943A6.373,6.373,0,0,0,12.767,5.7l2.082.777a.615.615,0,0,1,0,1.166l-2.22.648A6.373,6.373,0,0,0,9.02,11.661L8.188,13.6c-.278.518-1.11.518-1.249,0l-.833-1.943A6.373,6.373,0,0,0,2.5,8.292L.416,7.515a.615.615,0,0,1,0-1.166L2.5,5.571A6.048,6.048,0,0,0,6.245,2.332Z" transform="translate(20.909 54.597)" fill="#ffce00"/>
      <path id="Shape_Copy_4-2" data-name="Shape Copy 4" d="M3.233,1.207,3.664.2c.144-.268.575-.268.647,0l.431,1.006A3.3,3.3,0,0,0,6.609,2.951l1.078.4a.319.319,0,0,1,0,.6l-1.149.335A3.3,3.3,0,0,0,4.669,6.036L4.238,7.042c-.144.268-.575.268-.647,0L3.161,6.036A3.3,3.3,0,0,0,1.293,4.292L.216,3.89a.319.319,0,0,1,0-.6l1.078-.4A3.131,3.131,0,0,0,3.233,1.207Z" transform="translate(32.042 1.154)" fill="#ffce00"/>
    </g>
  </g>
  <rect id="Rectangle_131" data-name="Rectangle 131" width="94.089" height="92.642" rx="12" transform="translate(6.468 35.476) rotate(-17)" fill="#a3abbd" opacity="0.2"/>
  <rect id="Rectangle_130" data-name="Rectangle 130" width="94.089" height="92.642" rx="12" transform="matrix(0.695, -0.719, 0.719, 0.695, 0, 67.682)" fill="#a3abbd" opacity="0.2"/>
</svg>
