<svg id="Component_21_1" data-name="Component 21 – 1" xmlns="http://www.w3.org/2000/svg" width="132.001" height="132.037" viewBox="0 0 132.001 132.037">
  <g id="Group_292" data-name="Group 292" transform="translate(-1067.457 -234.075)">
    <g id="Group_291" data-name="Group 291" transform="translate(1125.87 272.368)">
      <circle id="Ellipse_24" data-name="Ellipse 24" cx="13.5" cy="13.5" r="13.5" transform="translate(5.588 -0.275)" fill="#ffce00"/>
      <path id="Subtraction_3" data-name="Subtraction 3" d="M39.022,18.01H0A19.626,19.626,0,0,1,32.9,5.233a19.1,19.1,0,0,1,6.12,12.774Z" transform="translate(0 27.539)" fill="#ffce00"/>
    </g>
    <g id="Group_290" data-name="Group 290" transform="translate(1102.071 268)">
      <g id="Ellipse_24-2" data-name="Ellipse 24" transform="translate(7.386 0.093)" fill="#06c" stroke="#0f55a8" stroke-width="2">
        <circle cx="16" cy="16" r="16" stroke="none"/>
        <circle cx="16" cy="16" r="15" fill="none"/>
      </g>
      <g id="Subtraction_3-2" data-name="Subtraction 3" transform="translate(0 32.866)" fill="#2673e5">
        <path d="M 44.17047882080078 19.6546630859375 L 1.665499091148376 19.6546630859375 C 3.156931400299072 9.353451728820801 12.19427299499512 1.500003457069397 22.91755294799805 1.500003457069397 C 28.41055297851562 1.500003457069397 33.63418197631836 3.540623426437378 37.62619400024414 7.245953559875488 C 41.1999397277832 10.55974578857422 43.48786163330078 14.9184627532959 44.17047882080078 19.6546630859375 Z" stroke="none"/>
        <path d="M 42.35920333862305 18.1546630859375 C 41.47253036499023 14.42464351654053 39.49002838134766 11.01983737945557 36.60574340820312 8.345353126525879 C 32.89205169677734 4.898353576660156 28.03082275390625 3.000003337860107 22.91755294799805 3.000003337860107 C 13.54694080352783 3.000003337860107 5.560859203338623 9.439446449279785 3.47826099395752 18.1546630859375 L 42.35920333862305 18.1546630859375 M 45.83510208129883 21.1546630859375 L 45.83313369750977 21.1546630859375 L 2.947998154922971e-06 21.1546630859375 C 0.7919029593467712 9.290833473205566 10.85891342163086 3.450317308306694e-06 22.91755294799805 3.450317308306694e-06 C 28.78949356079102 3.450317308306694e-06 34.3763313293457 2.182903528213501 38.64664459228516 6.146553516387939 C 42.901123046875 10.09156322479248 45.45302200317383 15.42041301727295 45.83510208129883 21.15143394470215 L 45.83510208129883 21.1546630859375 Z" stroke="none" fill="#0f55a8"/>
      </g>
    </g>
  </g>
  <rect id="Rectangle_219" data-name="Rectangle 219" width="94.089" height="92.642" rx="12" transform="translate(7.469 32.476) rotate(-17)" fill="#a3abbd" opacity="0.2"/>
  <rect id="Rectangle_220" data-name="Rectangle 220" width="94.089" height="92.642" rx="12" transform="matrix(0.695, -0.719, 0.719, 0.695, 0, 67.682)" fill="#a3abbd" opacity="0.2"/>
</svg>
