<svg id="Component_22_1" data-name="Component 22 – 1" xmlns="http://www.w3.org/2000/svg" width="132.001" height="132.037" viewBox="0 0 132.001 132.037">
  <g id="Group_269" data-name="Group 269" transform="translate(-798.241 -243.349)">
    <g id="Brain" transform="translate(834.537 275.226)">
      <path id="Path_237" data-name="Path 237" d="M30.819,64.213l5.29,1.755,4.509-4.011H45.2l4.067-3.5,4.41-4.913,2.34-5.907-.776-5.607,2.768-4.016,2.2-6.9-4.2-5.2V18.655l-2.34-5.074-2.722-1.41L49.27,9.259l-5.6-3.415h-3.05L39.264,3.021l-3.155-.665-3.277.665L30.819,4.956,27.592,3.021l-4.215-.665L20.6,4.956,18.231,6.5,13.712,7.614l-1.92,1.645L9.913,12.171l-2.1,2.51L5.075,17.469v9.763L2.86,31.113V36.02l3.216,4.453v6l-1,1.162,1,3.324,2.608,2.583,1.23,3.347L11.792,59.7l4.175,2.259H20.6l3.7,4.011,4.012-.7Z" transform="translate(-0.355 -0.292)" fill="#2673e5"/>
      <g id="Layer_6" data-name="Layer 6" transform="translate(0 0)">
        <path id="Path_215" data-name="Path 215" d="M20.046,26.992a8.666,8.666,0,0,0-6.663.428,1.468,1.468,0,1,0,1.342,2.611,5.755,5.755,0,0,1,4.184-.332,4.88,4.88,0,0,1,2.512,3.327,1.468,1.468,0,1,0,2.8-.869A7.629,7.629,0,0,0,20.046,26.992Z" transform="translate(0.113 10.802)" fill="#2673e5"/>
        <path id="Path_216" data-name="Path 216" d="M64.865,34.975a10.985,10.985,0,0,0-3.894-7.818c1.4-3.879,1.425-7.219.082-9.94a9.716,9.716,0,0,0-4.762-4.473,7.094,7.094,0,0,0-2.267-4.8c-2.477-2.288-6.309-2.614-8.357-2.609a6.271,6.271,0,0,0-5.056-4.21A7.121,7.121,0,0,0,34.4,3.882a7.139,7.139,0,0,0-6.209-2.76,6.273,6.273,0,0,0-5.056,4.209c-2.046-.005-5.877.32-8.357,2.609a7.108,7.108,0,0,0-2.267,4.8,9.713,9.713,0,0,0-4.762,4.473c-1.343,2.721-1.316,6.061.082,9.94a10.983,10.983,0,0,0-3.894,7.817c.059,2.789,1.6,5.367,4.6,7.68a11.339,11.339,0,0,0-1.276,7.769,10.428,10.428,0,0,0,5.463,6.567,7.742,7.742,0,0,0,2.4,4.995c1.92,1.744,4.74,2.42,8.408,2.013a8.029,8.029,0,0,0,5.243,4.315,5.224,5.224,0,0,0,.83.067,7.121,7.121,0,0,0,4.8-2.242,7.119,7.119,0,0,0,4.8,2.241,5.221,5.221,0,0,0,.829-.067A8.03,8.03,0,0,0,45.271,64c3.666.409,6.488-.269,8.409-2.014a7.746,7.746,0,0,0,2.4-4.994,10.428,10.428,0,0,0,5.463-6.567,11.331,11.331,0,0,0-1.275-7.768C63.262,40.342,64.808,37.763,64.865,34.975ZM29.244,65.415c-1.761-.277-3.131-2.678-3.51-3.577a1.465,1.465,0,0,0-1.59-.887c-3.243.523-5.612.146-7.026-1.12a4.524,4.524,0,0,1-1.333-2.308,9.906,9.906,0,0,0,4.241-1.75,8.77,8.77,0,0,0,4.007.876c.116,0,.235,0,.356-.005a1.469,1.469,0,0,0,1.429-1.505,1.492,1.492,0,0,0-1.507-1.429A4.84,4.84,0,0,1,20.32,52.4a5.461,5.461,0,0,1-.78-4.047,1.468,1.468,0,1,0-2.872-.608,8.653,8.653,0,0,0,1.025,6.038,5.609,5.609,0,0,1-3.134.855,7.916,7.916,0,0,1-4.44-4.884,9.217,9.217,0,0,1,1.557-6.633,1.467,1.467,0,0,0-.364-2.085c-2.9-1.949-4.39-4.005-4.439-6.111-.07-3.022,2.794-5.512,3.438-6.033a7.653,7.653,0,0,1,5.835.038,6.633,6.633,0,0,1,2.866,5.111,1.467,1.467,0,0,0,1.448,1.237,1.452,1.452,0,0,0,.234-.019,1.468,1.468,0,0,0,1.217-1.681,14.15,14.15,0,0,0-.729-2.78c.041,0,.08.006.122.006a7.123,7.123,0,0,0,2.192-.336,8.025,8.025,0,0,0,4.7-4.463,1.468,1.468,0,1,0-2.644-1.279,5.243,5.243,0,0,1-2.935,2.94,5.416,5.416,0,0,1-3.7-.325,7.3,7.3,0,0,0-1.365-.989,9.822,9.822,0,0,0-7.093-.573,9.48,9.48,0,0,1-.093-7.229,6.967,6.967,0,0,1,3.967-3.366c.028-.008.05-.027.077-.036s.043,0,.065-.01a3.868,3.868,0,0,1,3.693.713,7.967,7.967,0,0,0-1.51,5.53,1.468,1.468,0,0,0,1.464,1.383l.086,0a1.468,1.468,0,0,0,1.381-1.551A4.965,4.965,0,0,1,20.7,17.336a5.408,5.408,0,0,1,3.592-1.379c.113,0,.043,0,.059,0a1.468,1.468,0,1,0,.046-2.936,9.026,9.026,0,0,0-3.951.918,6.632,6.632,0,0,0-4.815-1.925A4.005,4.005,0,0,1,16.765,10.1c1.748-1.621,4.762-1.844,6.371-1.836a4.311,4.311,0,0,0,1.7,2.143,1.468,1.468,0,1,0,1.629-2.443,1.33,1.33,0,0,1-.635-1.041c0-.028-.008-.054-.008-.082a1.857,1.857,0,0,1,.047-.454,3.293,3.293,0,0,1,2.737-2.361c2.017-.28,3.764,1.924,4.327,2.744V58.728a1.426,1.426,0,0,0,.083.412,1.426,1.426,0,0,0-.083.412v3.915A4.762,4.762,0,0,1,29.244,65.415ZM57.491,41.037a1.473,1.473,0,0,0-.367,2.082,9.214,9.214,0,0,1,1.56,6.636,7.923,7.923,0,0,1-4.443,4.886,5.571,5.571,0,0,1-3.132-.856,8.657,8.657,0,0,0,1.024-6.038,1.468,1.468,0,1,0-2.87.614,5.476,5.476,0,0,1-.771,4.03,4.791,4.791,0,0,1-4,1.318h-.04a1.468,1.468,0,1,0-.037,2.936q.181.005.357,0a8.769,8.769,0,0,0,4.006-.876,9.9,9.9,0,0,0,4.243,1.75,4.522,4.522,0,0,1-1.312,2.287c-1.412,1.282-3.781,1.666-7.048,1.141a1.475,1.475,0,0,0-1.589.883c-.38.9-1.751,3.3-3.511,3.58a4.728,4.728,0,0,1-3.688-1.948V59.552a1.426,1.426,0,0,0-.083-.412,1.425,1.425,0,0,0,.083-.412V6.772c.566-.823,2.307-3.035,4.326-2.744A3.293,3.293,0,0,1,42.933,6.39a1.854,1.854,0,0,1,.047.454c0,.028-.009.054-.008.082a1.33,1.33,0,0,1-.635,1.041,1.468,1.468,0,1,0,1.629,2.443,4.312,4.312,0,0,0,1.7-2.143c1.609-.007,4.623.216,6.372,1.837a4.009,4.009,0,0,1,1.132,1.913,6.64,6.64,0,0,0-4.816,1.924,9.051,9.051,0,0,0-3.95-.919,1.468,1.468,0,1,0,.054,2.936h.032a5.393,5.393,0,0,1,3.61,1.379,4.965,4.965,0,0,1,1.114,3.876,1.468,1.468,0,0,0,1.381,1.551l.086,0a1.468,1.468,0,0,0,1.464-1.383,7.966,7.966,0,0,0-1.51-5.53,3.868,3.868,0,0,1,3.691-.714c.022.008.044,0,.066.011s.045.026.07.033a6.969,6.969,0,0,1,3.974,3.368,9.48,9.48,0,0,1-.093,7.229,9.815,9.815,0,0,0-7.091.573,7.294,7.294,0,0,0-1.368.991,5.392,5.392,0,0,1-3.674.33,5.231,5.231,0,0,1-2.956-2.947,1.468,1.468,0,1,0-2.644,1.279,8.023,8.023,0,0,0,4.7,4.463A7.123,7.123,0,0,0,47.5,30.8c.041,0,.079-.005.12-.006a14.171,14.171,0,0,0-.73,2.78,1.468,1.468,0,0,0,1.217,1.682,1.439,1.439,0,0,0,.234.019,1.468,1.468,0,0,0,1.448-1.236,6.63,6.63,0,0,1,2.868-5.111,7.628,7.628,0,0,1,5.836-.037c.654.531,3.506,3.017,3.436,6.032C61.88,37.033,60.387,39.089,57.491,41.037Z" transform="translate(-3.937 -1.1)" fill="#0f55a8"/>
        <path id="Path_217" data-name="Path 217" d="M39.721,27.42a8.669,8.669,0,0,0-6.663-.428,7.634,7.634,0,0,0-4.178,5.165,1.468,1.468,0,1,0,2.8.869,4.886,4.886,0,0,1,2.5-3.321,5.733,5.733,0,0,1,4.2.328,1.468,1.468,0,0,0,1.338-2.614Z" transform="translate(7.711 10.802)" fill="#2673e5"/>
      </g>
    </g>
    <g id="Group_265" data-name="Group 265" transform="translate(824.104 297.767) rotate(-90)">
      <path id="Union_17" data-name="Union 17" d="M.79,7.583A1.118,1.118,0,0,1,.049,6.189L1.7.791a1.118,1.118,0,0,1,2.138.653l-1.651,5.4a1.126,1.126,0,0,1-1.069.79A1.077,1.077,0,0,1,.79,7.583ZM2.454.527a.666.666,0,0,0-.327.4L.477,6.32a.669.669,0,0,0,.445.835.689.689,0,0,0,.837-.444l1.65-5.4A.669.669,0,0,0,2.965.478a.658.658,0,0,0-.2-.029A.672.672,0,0,0,2.454.527ZM.935,7.111a.623.623,0,0,1-.414-.778L2.173.936A.623.623,0,1,1,3.363,1.3L1.713,6.7a.622.622,0,0,1-.778.413Z" transform="translate(0 0)" fill="#ffce00" stroke="rgba(0,0,0,0)" stroke-miterlimit="10" stroke-width="1"/>
      <g id="Group_21" data-name="Group 21" transform="translate(0.254 0.254)">
        <path id="Path_31" data-name="Path 31" d="M.907,7.125a.773.773,0,0,1-.229-.035L.551,7.052a.782.782,0,0,1-.517-.974L1.724.553A.781.781,0,0,1,2.7.035l.126.038a.782.782,0,0,1,.518.975L1.653,6.573a.783.783,0,0,1-.746.553Zm-.224-.5.126.038a.333.333,0,0,0,.416-.22L2.915.917A.333.333,0,0,0,2.694.5L2.568.463a.331.331,0,0,0-.253.024.328.328,0,0,0-.162.2L.462,6.208a.334.334,0,0,0,.221.416Z" transform="translate(0 0)" fill="#ffce00"/>
      </g>
      <g id="Group_22" data-name="Group 22" transform="translate(0.224 0.225)">
        <path id="Path_32" data-name="Path 32" d="M.893,7.184a.875.875,0,0,1-.26-.039A.9.9,0,0,1,.039,6.03L1.69.632a.894.894,0,0,1,1.71.522l-1.651,5.4A.9.9,0,0,1,.893,7.184ZM2.545.541a.353.353,0,0,0-.337.25L.557,6.187a.353.353,0,0,0,.674.207L2.882,1a.352.352,0,0,0-.234-.44A.356.356,0,0,0,2.545.541Z" transform="translate(0 0)" fill="#ffce00"/>
      </g>
    </g>
    <g id="Group_271" data-name="Group 271" transform="translate(899.309 297.767) rotate(-90)">
      <path id="Union_17-2" data-name="Union 17" d="M2.246,7.5a1.105,1.105,0,0,1-.546-.66L.049,1.445A1.118,1.118,0,0,1,.79.049,1.072,1.072,0,0,1,1.117,0,1.126,1.126,0,0,1,2.186.791l1.651,5.4A1.119,1.119,0,0,1,3.1,7.583a1.1,1.1,0,0,1-.85-.082ZM.922.478a.669.669,0,0,0-.445.835l1.651,5.4a.663.663,0,0,0,.327.4.669.669,0,0,0,.954-.786L1.758.923A.69.69,0,0,0,1.1.451.629.629,0,0,0,.922.478ZM2.173,6.7.521,1.3A.623.623,0,0,1,1.713.935l1.651,5.4A.623.623,0,1,1,2.173,6.7Z" transform="translate(0 0)" fill="#ffce00" stroke="rgba(0,0,0,0)" stroke-miterlimit="10" stroke-width="1"/>
      <g id="Group_21-2" data-name="Group 21" transform="translate(0.254 0.254)">
        <path id="Path_31-2" data-name="Path 31" d="M.907,0A.773.773,0,0,0,.679.035L.551.073a.782.782,0,0,0-.517.974l1.69,5.525a.781.781,0,0,0,.975.519l.126-.038a.782.782,0,0,0,.518-.975L1.653.553A.783.783,0,0,0,.907,0ZM.683.5.809.464a.333.333,0,0,1,.416.22l1.69,5.525a.333.333,0,0,1-.221.415l-.126.038a.331.331,0,0,1-.253-.024.328.328,0,0,1-.162-.2L.462.917A.334.334,0,0,1,.683.5Z" transform="translate(0)" fill="#ffce00"/>
      </g>
      <g id="Group_22-2" data-name="Group 22" transform="translate(0.224 0.224)">
        <path id="Path_32-2" data-name="Path 32" d="M.893,0a.875.875,0,0,0-.26.039A.9.9,0,0,0,.039,1.155l1.651,5.4A.894.894,0,0,0,3.4,6.03L1.748.633A.9.9,0,0,0,.893,0ZM2.545,6.644a.353.353,0,0,1-.337-.25L.557,1A.353.353,0,0,1,1.231.79l1.65,5.4a.352.352,0,0,1-.234.44A.356.356,0,0,1,2.545,6.644Z" transform="translate(0 0)" fill="#ffce00"/>
      </g>
    </g>
    <g id="Group_266" data-name="Group 266" transform="translate(824.979 324.04) rotate(-90)">
      <path id="Union_4" data-name="Union 4" d="M2.692,7.406a1.1,1.1,0,0,1-.59-.621L.076,1.517A1.111,1.111,0,0,1,.719.076,1.093,1.093,0,0,1,1.571.1a1.1,1.1,0,0,1,.59.617L4.186,5.983a1.119,1.119,0,0,1-.64,1.444,1.087,1.087,0,0,1-.4.076A1.135,1.135,0,0,1,2.692,7.406Z" transform="translate(0 0)" fill="#ffce00" stroke="rgba(0,0,0,0)" stroke-miterlimit="10" stroke-width="1"/>
    </g>
    <g id="Group_270" data-name="Group 270" transform="translate(898.564 324.04) rotate(-90)">
      <path id="Union_4-2" data-name="Union 4" d="M.719,7.427A1.111,1.111,0,0,1,.076,5.985L2.1.717A1.1,1.1,0,0,1,2.692.1,1.134,1.134,0,0,1,3.146,0a1.086,1.086,0,0,1,.4.075,1.119,1.119,0,0,1,.64,1.445L2.16,6.787a1.1,1.1,0,0,1-.59.618,1.127,1.127,0,0,1-.455.1A1.054,1.054,0,0,1,.719,7.427Z" transform="translate(0 0)" fill="#ffce00" stroke="rgba(0,0,0,0)" stroke-miterlimit="10" stroke-width="1"/>
    </g>
    <path id="Union_12" data-name="Union 12" d="M1.069,11.236A1.133,1.133,0,0,1,0,10.037l.511-8.96A1.148,1.148,0,0,1,1.719,0a1.141,1.141,0,0,1,1.07,1.206l-.519,8.96a1.137,1.137,0,0,1-1.13,1.075Z" transform="translate(820.599 310.119) rotate(-90)" fill="#ffce00" stroke="rgba(0,0,0,0)" stroke-miterlimit="10" stroke-width="1"/>
    <path id="Union_21" data-name="Union 21" d="M.9,10.954a1.161,1.161,0,0,1-.383-.788L0,1.206A1.135,1.135,0,0,1,1.069.006L1.14,0a1.139,1.139,0,0,1,1.13,1.075l.518,8.96A1.14,1.14,0,0,1,1.72,11.241l-.068,0A1.157,1.157,0,0,1,.9,10.954Z" transform="translate(899.204 310.12) rotate(-90)" fill="#ffce00" stroke="rgba(0,0,0,0)" stroke-miterlimit="10" stroke-width="1"/>
  </g>
  <rect id="Rectangle_217" data-name="Rectangle 217" width="94.089" height="92.642" rx="12" transform="translate(7.468 35.476) rotate(-17)" fill="#a3abbd" opacity="0.2"/>
  <rect id="Rectangle_218" data-name="Rectangle 218" width="94.089" height="92.642" rx="12" transform="matrix(0.695, -0.719, 0.719, 0.695, 0, 67.682)" fill="#a3abbd" opacity="0.2"/>
</svg>
