<svg id="Component_15_1" data-name="Component 15 – 1" xmlns="http://www.w3.org/2000/svg" width="132.001" height="132.037" viewBox="0 0 132.001 132.037">
  <g id="Group_269" data-name="Group 269" transform="translate(-804.599 -245.11)">
    <g id="Brain" transform="translate(836.51 275.226)">
      <g id="Layer_6" data-name="Layer 6" transform="translate(0 0)">
        <path id="Path_215" data-name="Path 215" d="M21.1,27.059a9.892,9.892,0,0,0-7.606.489,1.676,1.676,0,0,0,1.532,2.98,6.569,6.569,0,0,1,4.776-.379,5.571,5.571,0,0,1,2.868,3.8,1.676,1.676,0,1,0,3.2-.992A8.709,8.709,0,0,0,21.1,27.059Z" transform="translate(1.91 16.084)" fill="#2673e5"/>
        <path id="Path_216" data-name="Path 216" d="M73.488,39.77a12.539,12.539,0,0,0-4.445-8.924c1.6-4.428,1.627-8.241.093-11.346A11.091,11.091,0,0,0,63.7,14.394,8.1,8.1,0,0,0,61.113,8.91c-2.827-2.612-7.2-2.984-9.539-2.979A7.159,7.159,0,0,0,45.8,1.126a8.128,8.128,0,0,0-7.091,3.151,8.15,8.15,0,0,0-7.088-3.15,7.16,7.16,0,0,0-5.772,4.805c-2.336-.006-6.709.366-9.54,2.978a8.114,8.114,0,0,0-2.588,5.485A11.088,11.088,0,0,0,8.289,19.5c-1.534,3.106-1.5,6.918.093,11.346a12.537,12.537,0,0,0-4.445,8.923C4,42.952,5.766,45.9,9.185,48.536A12.944,12.944,0,0,0,7.729,57.4a11.9,11.9,0,0,0,6.236,7.5,8.838,8.838,0,0,0,2.741,5.7c2.192,1.991,5.411,2.763,9.6,2.3a9.166,9.166,0,0,0,5.985,4.926,5.964,5.964,0,0,0,.948.076,8.129,8.129,0,0,0,5.476-2.559A8.127,8.127,0,0,0,44.19,77.9a5.959,5.959,0,0,0,.946-.076A9.166,9.166,0,0,0,51.121,72.9c4.185.467,7.406-.307,9.6-2.3a8.843,8.843,0,0,0,2.74-5.7A11.9,11.9,0,0,0,69.7,57.4a12.934,12.934,0,0,0-1.455-8.868C71.659,45.9,73.423,42.952,73.488,39.77ZM32.826,74.517c-2.01-.317-3.575-3.057-4.007-4.083A1.672,1.672,0,0,0,27,69.422c-3.7.6-6.406.167-8.02-1.278a5.164,5.164,0,0,1-1.521-2.635,11.308,11.308,0,0,0,4.841-2,10.012,10.012,0,0,0,4.574,1c.133,0,.268,0,.406-.006a1.677,1.677,0,0,0,1.632-1.719,1.7,1.7,0,0,0-1.72-1.632,5.525,5.525,0,0,1-4.557-1.492,6.234,6.234,0,0,1-.89-4.62,1.675,1.675,0,1,0-3.278-.694,9.878,9.878,0,0,0,1.17,6.892,6.4,6.4,0,0,1-3.578.977,9.036,9.036,0,0,1-5.069-5.576,10.521,10.521,0,0,1,1.777-7.572,1.675,1.675,0,0,0-.416-2.381c-3.306-2.225-5.012-4.572-5.067-6.976-.08-3.449,3.19-6.292,3.925-6.887a8.736,8.736,0,0,1,6.661.044A7.572,7.572,0,0,1,21.146,38.7,1.675,1.675,0,0,0,22.8,40.116a1.658,1.658,0,0,0,.267-.021,1.676,1.676,0,0,0,1.39-1.919A16.153,16.153,0,0,0,23.623,35c.047,0,.091.007.139.007a8.131,8.131,0,0,0,2.5-.384,9.16,9.16,0,0,0,5.364-5.094,1.676,1.676,0,1,0-3.018-1.46,5.985,5.985,0,0,1-3.35,3.356,6.182,6.182,0,0,1-4.222-.371,8.329,8.329,0,0,0-1.559-1.13,11.213,11.213,0,0,0-8.1-.654,10.822,10.822,0,0,1-.106-8.252A7.953,7.953,0,0,1,15.8,17.178c.032-.009.057-.03.088-.041s.049,0,.074-.012a4.416,4.416,0,0,1,4.215.813,9.094,9.094,0,0,0-1.724,6.313,1.676,1.676,0,0,0,1.671,1.579l.1,0A1.676,1.676,0,0,0,21.8,24.057a5.668,5.668,0,0,1,1.272-4.424,6.174,6.174,0,0,1,4.1-1.574c.129,0,.049,0,.067,0a1.676,1.676,0,1,0,.052-3.351,10.3,10.3,0,0,0-4.51,1.048,7.571,7.571,0,0,0-5.5-2.2,4.572,4.572,0,0,1,1.293-2.182c2-1.85,5.436-2.1,7.273-2.1a4.921,4.921,0,0,0,1.942,2.446,1.676,1.676,0,1,0,1.859-2.789,1.518,1.518,0,0,1-.725-1.189c0-.032-.009-.062-.009-.094a2.12,2.12,0,0,1,.053-.518,3.759,3.759,0,0,1,3.124-2.7c2.3-.319,4.3,2.2,4.94,3.132V66.884a1.628,1.628,0,0,0,.095.471,1.627,1.627,0,0,0-.095.471v4.469A5.436,5.436,0,0,1,32.826,74.517ZM65.071,46.69a1.682,1.682,0,0,0-.419,2.377,10.518,10.518,0,0,1,1.781,7.575,9.044,9.044,0,0,1-5.072,5.577,6.359,6.359,0,0,1-3.575-.977,9.883,9.883,0,0,0,1.169-6.893,1.675,1.675,0,1,0-3.277.7,6.251,6.251,0,0,1-.881,4.6,5.469,5.469,0,0,1-4.568,1.5h-.046a1.676,1.676,0,1,0-.043,3.351q.206.006.408.006a10.01,10.01,0,0,0,4.573-1,11.3,11.3,0,0,0,4.844,2,5.162,5.162,0,0,1-1.5,2.611c-1.612,1.463-4.316,1.9-8.046,1.3a1.684,1.684,0,0,0-1.813,1.008c-.434,1.029-2,3.771-4.008,4.087a5.4,5.4,0,0,1-4.21-2.223V67.825a1.627,1.627,0,0,0-.095-.471,1.627,1.627,0,0,0,.095-.471V7.575c.647-.939,2.633-3.465,4.938-3.132a3.759,3.759,0,0,1,3.124,2.7,2.116,2.116,0,0,1,.053.518c0,.032-.011.061-.009.093a1.518,1.518,0,0,1-.725,1.189,1.676,1.676,0,1,0,1.859,2.789,4.922,4.922,0,0,0,1.942-2.447c1.837-.008,5.277.246,7.274,2.1a4.576,4.576,0,0,1,1.292,2.184,7.58,7.58,0,0,0-5.5,2.2,10.332,10.332,0,0,0-4.51-1.049,1.676,1.676,0,1,0,.062,3.351h.036a6.156,6.156,0,0,1,4.121,1.574,5.668,5.668,0,0,1,1.272,4.424A1.676,1.676,0,0,0,57.2,25.828l.1,0a1.676,1.676,0,0,0,1.671-1.579,9.094,9.094,0,0,0-1.724-6.312,4.415,4.415,0,0,1,4.213-.815c.025.01.05,0,.075.013s.051.03.08.038a7.955,7.955,0,0,1,4.537,3.845,10.822,10.822,0,0,1-.106,8.252,11.2,11.2,0,0,0-8.1.654,8.327,8.327,0,0,0-1.562,1.131,6.155,6.155,0,0,1-4.194.377,5.971,5.971,0,0,1-3.375-3.364,1.676,1.676,0,1,0-3.018,1.46,9.158,9.158,0,0,0,5.363,5.094,8.131,8.131,0,0,0,2.5.384c.047,0,.09-.006.137-.007a16.176,16.176,0,0,0-.833,3.173,1.676,1.676,0,0,0,1.39,1.92,1.642,1.642,0,0,0,.267.021,1.676,1.676,0,0,0,1.653-1.411,7.569,7.569,0,0,1,3.273-5.835,8.707,8.707,0,0,1,6.662-.042c.747.606,4,3.444,3.923,6.886C70.081,42.119,68.377,44.466,65.071,46.69Z" transform="translate(-3.937 -1.1)" fill="#2673e5"/>
        <path id="Path_217" data-name="Path 217" d="M41.265,27.547a9.9,9.9,0,0,0-7.606-.489,8.715,8.715,0,0,0-4.769,5.9,1.676,1.676,0,1,0,3.2.992,5.578,5.578,0,0,1,2.851-3.791,6.544,6.544,0,0,1,4.8.375,1.676,1.676,0,1,0,1.527-2.984Z" transform="translate(12.881 16.084)" fill="#2673e5"/>
      </g>
    </g>
    <g id="Group_265" data-name="Group 265" transform="translate(824.599 300.958) rotate(-90)">
      <path id="Union_17" data-name="Union 17" d="M.9,8.657A1.277,1.277,0,0,1,.056,7.065L1.94.9A1.265,1.265,0,0,1,2.563.151,1.256,1.256,0,0,1,3.534.058,1.277,1.277,0,0,1,4.38,1.649L2.5,7.811a1.285,1.285,0,0,1-1.22.9A1.24,1.24,0,0,1,.9,8.657ZM2.8.6a.76.76,0,0,0-.374.451L.544,7.214a.765.765,0,0,0,.508.954.786.786,0,0,0,.955-.508L3.892,1.5A.763.763,0,0,0,3.161.513.755.755,0,0,0,2.8.6ZM1.067,8.118A.71.71,0,0,1,.6,7.231L2.48,1.068a.711.711,0,0,1,1.36.416L1.956,7.646a.71.71,0,0,1-.888.472Z" fill="#ffce00" stroke="rgba(0,0,0,0)" stroke-miterlimit="10" stroke-width="1"/>
      <g id="Group_21" data-name="Group 21" transform="translate(0.29 0.291)">
        <path id="Path_31" data-name="Path 31" d="M1.036,8.134a.883.883,0,0,1-.261-.04L.629,8.05A.892.892,0,0,1,.039,6.938L1.968.631A.891.891,0,0,1,3.081.039l.144.044A.893.893,0,0,1,3.816,1.2L1.887,7.5a.893.893,0,0,1-.852.631ZM.78,7.562.924,7.6A.381.381,0,0,0,1.4,7.354L3.328,1.047A.38.38,0,0,0,3.075.573L2.931.529a.378.378,0,0,0-.289.028A.374.374,0,0,0,2.457.78L.528,7.087a.381.381,0,0,0,.252.475Z" transform="translate(0 0)" fill="#ffce00"/>
      </g>
      <g id="Group_22" data-name="Group 22" transform="translate(0.255 0.257)">
        <path id="Path_32" data-name="Path 32" d="M1.019,8.2a1,1,0,0,1-.3-.045A1.022,1.022,0,0,1,.044,6.883L1.929.722a1.02,1.02,0,0,1,1.952.6L2,7.479A1.022,1.022,0,0,1,1.019,8.2ZM2.905.617A.4.4,0,0,0,2.52.9L.635,7.063a.4.4,0,0,0,.77.236L3.289,1.137a.4.4,0,0,0-.267-.5A.407.407,0,0,0,2.905.617Z" transform="translate(0 0)" fill="#ffce00"/>
      </g>
    </g>
    <g id="Group_271" data-name="Group 271" transform="translate(910.449 300.957) rotate(-90)">
      <path id="Union_17-2" data-name="Union 17" d="M2.563,8.564A1.263,1.263,0,0,1,1.94,7.81L.056,1.649A1.276,1.276,0,0,1,.9.057,1.24,1.24,0,0,1,1.275,0,1.285,1.285,0,0,1,2.5.9L4.38,7.065a1.274,1.274,0,0,1-1.817,1.5ZM1.052.545A.765.765,0,0,0,.544,1.5L2.428,7.661a.765.765,0,0,0,1.463-.446L2.007,1.053A.788.788,0,0,0,1.26.515.72.72,0,0,0,1.052.545Zm1.427,7.1L.595,1.483a.711.711,0,0,1,1.36-.416L3.839,7.23a.711.711,0,0,1-1.36.416Z" transform="translate(0 0)" fill="#ffce00" stroke="rgba(0,0,0,0)" stroke-miterlimit="10" stroke-width="1"/>
      <g id="Group_21-2" data-name="Group 21" transform="translate(0.29 0.29)">
        <path id="Path_31-2" data-name="Path 31" d="M1.036,0A.883.883,0,0,0,.775.04L.629.084A.892.892,0,0,0,.039,1.2L1.968,7.5a.891.891,0,0,0,1.113.592l.144-.044a.893.893,0,0,0,.592-1.113L1.887.631A.893.893,0,0,0,1.036,0ZM.78.572.924.529A.381.381,0,0,1,1.4.78L3.328,7.087a.38.38,0,0,1-.252.474L2.931,7.6a.378.378,0,0,1-.289-.028.374.374,0,0,1-.185-.223L.528,1.047A.381.381,0,0,1,.78.572Z" transform="translate(0)" fill="#ffce00"/>
      </g>
      <g id="Group_22-2" data-name="Group 22" transform="translate(0.255 0.255)">
        <path id="Path_32-2" data-name="Path 32" d="M1.019,0a1,1,0,0,0-.3.045A1.022,1.022,0,0,0,.044,1.318L1.929,7.48a1.02,1.02,0,0,0,1.952-.6L2,.722A1.022,1.022,0,0,0,1.019,0ZM2.905,7.584A.4.4,0,0,1,2.52,7.3L.635,1.138A.4.4,0,0,1,1.405.9L3.289,7.064a.4.4,0,0,1-.267.5A.407.407,0,0,1,2.905,7.584Z" transform="translate(0)" fill="#ffce00"/>
      </g>
    </g>
    <g id="Group_266" data-name="Group 266" transform="translate(825.598 330.949) rotate(-90)">
      <path id="Union_4" data-name="Union 4" d="M3.073,8.456A1.26,1.26,0,0,1,2.4,7.746L.087,1.733A1.27,1.27,0,0,1,.821.087a1.249,1.249,0,0,1,.972.025,1.26,1.26,0,0,1,.673.706L4.779,6.831A1.278,1.278,0,0,1,4.047,8.48a1.229,1.229,0,0,1-.455.085A1.3,1.3,0,0,1,3.073,8.456Z" transform="translate(0 0)" fill="#ffce00" stroke="rgba(0,0,0,0)" stroke-miterlimit="10" stroke-width="1"/>
    </g>
    <g id="Group_270" data-name="Group 270" transform="translate(909.599 330.949) rotate(-90)">
      <path id="Union_4-2" data-name="Union 4" d="M.821,8.478A1.269,1.269,0,0,1,.087,6.832L2.4.819A1.26,1.26,0,0,1,3.073.11,1.292,1.292,0,0,1,3.592,0a1.232,1.232,0,0,1,.455.086,1.278,1.278,0,0,1,.732,1.649L2.466,7.747a1.258,1.258,0,0,1-.673.706,1.277,1.277,0,0,1-.52.113A1.2,1.2,0,0,1,.821,8.478Z" transform="translate(0 0)" fill="#ffce00" stroke="rgba(0,0,0,0)" stroke-miterlimit="10" stroke-width="1"/>
    </g>
    <path id="Union_12" data-name="Union 12" d="M1.221,12.827A1.3,1.3,0,0,1,0,11.457L.586,1.229A1.308,1.308,0,0,1,1.963,0,1.3,1.3,0,0,1,3.184,1.379L2.592,11.607A1.3,1.3,0,0,1,1.3,12.834Z" transform="translate(820.599 315.058) rotate(-90)" fill="#ffce00" stroke="rgba(0,0,0,0)" stroke-miterlimit="10" stroke-width="1"/>
    <path id="Union_21" data-name="Union 21" d="M1.023,12.5a1.317,1.317,0,0,1-.437-.9L0,1.377A1.3,1.3,0,0,1,1.22.007L1.3,0A1.3,1.3,0,0,1,2.591,1.228l.592,10.228a1.3,1.3,0,0,1-1.22,1.377l-.075,0A1.32,1.32,0,0,1,1.023,12.5Z" transform="translate(910.329 315.058) rotate(-90)" fill="#ffce00" stroke="rgba(0,0,0,0)" stroke-miterlimit="10" stroke-width="1"/>
  </g>
  <rect id="Rectangle_217" data-name="Rectangle 217" width="94.089" height="92.642" rx="12" transform="translate(7.469 35.476) rotate(-17)" fill="#a3abbd" opacity="0.2"/>
  <rect id="Rectangle_218" data-name="Rectangle 218" width="94.089" height="92.642" rx="12" transform="matrix(0.695, -0.719, 0.719, 0.695, 0, 67.682)" fill="#a3abbd" opacity="0.2"/>
</svg>
