<svg id="Component_21_1" data-name="Component 21 – 1" xmlns="http://www.w3.org/2000/svg" width="132.001" height="132.037" viewBox="0 0 132.001 132.037">
  <g id="Group_288" data-name="Group 288" transform="translate(-508.072 -226.279)">
    <g id="Ellipse_24" data-name="Ellipse 24" transform="translate(555.072 256.298)" fill="#06c" stroke="#0f55a8" stroke-width="2">
      <ellipse cx="20" cy="19.5" rx="20" ry="19.5" stroke="none"/>
      <ellipse cx="20" cy="19.5" rx="19" ry="18.5" fill="none"/>
    </g>
    <g id="Subtraction_3" data-name="Subtraction 3" transform="translate(546.999 296.383)" fill="#2673e5">
      <path d="M 54.48594284057617 24.41004371643066 L 1.653346180915833 24.41004371643066 C 3.331023454666138 11.43920803070068 14.63318252563477 1.500002861022949 28.0692138671875 1.500002861022949 C 34.88235473632812 1.500002861022949 41.36167526245117 4.031322956085205 46.31362533569336 8.627653121948242 C 50.84445571899414 12.8289098739624 53.70952987670898 18.38398170471191 54.48594284057617 24.41004371643066 Z" stroke="none"/>
      <path d="M 52.719482421875 22.91004371643066 C 51.70956039428711 17.88810157775879 49.13737487792969 13.29162883758545 45.29317474365234 9.727052688598633 C 40.61954498291016 5.389052867889404 34.50262451171875 3.000002861022949 28.0692138671875 3.000002861022949 C 15.98043727874756 3.000002861022949 5.722636699676514 11.51789665222168 3.421036720275879 22.91004371643066 L 52.719482421875 22.91004371643066 M 56.13843536376953 25.91004371643066 L 56.13600540161133 25.91004371643066 L 3.867187388095772e-06 25.91004371643066 C 0.9699138402938843 11.37933254241943 13.29990386962891 2.811889544318547e-06 28.0692138671875 2.811889544318547e-06 C 35.26110458374023 2.811889544318547e-06 42.10382461547852 2.673602819442749 47.33407211303711 7.528252601623535 C 52.54492568969727 12.36006259918213 55.67045211791992 18.88678359985352 56.13843536376953 25.90608215332031 L 56.13843536376953 25.91004371643066 Z" stroke="none" fill="#0f55a8"/>
    </g>
    <circle id="Ellipse_27" data-name="Ellipse 27" cx="8.5" cy="8.5" r="8.5" transform="translate(573.072 267.298)" fill="#ffce00"/>
    <ellipse id="Ellipse_28" data-name="Ellipse 28" cx="6.5" cy="7" rx="6.5" ry="7" transform="translate(575.072 268.298)" fill="#fff"/>
    <path id="Path_234" data-name="Path 234" d="M7663.557,511.76a6.389,6.389,0,0,1,3.937,4.325" transform="translate(-7080.806 -241.132)" fill="none" stroke="#ffce00" stroke-linecap="round" stroke-width="1"/>
    <path id="Path_235" data-name="Path 235" d="M7666.247,518.525s.1,9.354,0,11.342-2.709,2.443-4.191-1.514" transform="translate(-7081.809 -235.449)" fill="none" stroke="#ffce00" stroke-linecap="round" stroke-linejoin="round" stroke-width="2"/>
    <circle id="Ellipse_29" data-name="Ellipse 29" cx="3.5" cy="3.5" r="3.5" transform="translate(562.072 270.298)" fill="#0f55a8"/>
  </g>
  <rect id="Rectangle_131" data-name="Rectangle 131" width="94.089" height="92.642" rx="12" transform="translate(7.469 35.476) rotate(-17)" fill="#a3abbd" opacity="0.2"/>
  <rect id="Rectangle_130" data-name="Rectangle 130" width="94.089" height="92.642" rx="12" transform="matrix(0.695, -0.719, 0.719, 0.695, 0, 67.682)" fill="#a3abbd" opacity="0.2"/>
</svg>
