<svg id="Component_23_1" data-name="Component 23 – 1" xmlns="http://www.w3.org/2000/svg" width="132.001" height="132.037" viewBox="0 0 132.001 132.037">
  <g id="Group_293" data-name="Group 293" transform="translate(-1073 -237.982)">
    <g id="Search_icon" data-name="Search icon" transform="translate(1115.104 281.142)">
      <path id="Union_1" data-name="Union 1" d="M0,26.2A18.856,18.856,0,0,1,29.532,10.657l9.523-9.524a4,4,0,0,1,5.657,0l.131.131a4,4,0,0,1,0,5.656l-9.728,9.728A18.855,18.855,0,1,1,0,26.2Z" transform="translate(45.977 45.052) rotate(180)" fill="#0f55a8"/>
      <ellipse id="Ellipse_3" data-name="Ellipse 3" cx="11.784" cy="11.784" rx="11.784" ry="11.784" transform="translate(15.339 7.07)" fill="#2673e5"/>
    </g>
    <text id="_" data-name="&lt;" transform="translate(1103 315)" fill="#ffce00" font-size="34" font-family="Rubik-Bold, Rubik" font-weight="700"><tspan x="-8.789" y="0">&lt;</tspan></text>
    <text id="_2" data-name="&lt;" transform="matrix(-1, 0, 0, 1, 1173, 315)" fill="#ffce00" font-size="34" font-family="Rubik-Bold, Rubik" font-weight="700"><tspan x="-8.789" y="0">&lt;</tspan></text>
  </g>
  <rect id="Rectangle_219" data-name="Rectangle 219" width="94.089" height="92.642" rx="12" transform="translate(7.468 35.476) rotate(-17)" fill="#a3abbd" opacity="0.2"/>
  <rect id="Rectangle_220" data-name="Rectangle 220" width="94.089" height="92.642" rx="12" transform="matrix(0.695, -0.719, 0.719, 0.695, 0, 67.682)" fill="#a3abbd" opacity="0.2"/>
</svg>
