<svg xmlns="http://www.w3.org/2000/svg" xmlns:xlink="http://www.w3.org/1999/xlink" width="254.867" height="254.936" viewBox="0 0 254.867 254.936"><defs><style>.a,.d,.h,.i{fill:none;}.b,.e{fill:#a3abbd;}.b{opacity:0.2;}.c,.g{fill:#fff;}.c{stroke:#a3abbd;stroke-width:6px;}.d{stroke:#ffce00;stroke-width:4px;}.d,.h,.i{stroke-linecap:round;}.f{clip-path:url(#a);}.h{stroke:#89909f;}.h,.i{stroke-width:2px;}.i{stroke:#fff;}.j{stroke:none;}</style><clipPath id="a"><rect class="a" width="104" height="10"/></clipPath></defs><g transform="translate(-604.43 -279.412)"><rect class="b" width="181.667" height="178.873" rx="12" transform="translate(618.851 347.909) rotate(-17)"/><rect class="b" width="181.667" height="178.873" rx="12" transform="matrix(0.695, -0.719, 0.719, 0.695, 604.43, 410.093)"/><g class="c" transform="translate(627.728 324)"><rect class="j" width="209" height="140" rx="12"/><rect class="a" x="3" y="3" width="203" height="134" rx="9"/></g><path class="d" d="M2666.943,306.275h27.517" transform="translate(-1882.713 35.418)"/><path class="d" d="M2666.943,306.275h7.99" transform="translate(-1898.382 35.418)"/><rect class="e" width="57" height="57" rx="8" transform="translate(645.728 342)"/><g class="f" transform="translate(707.728 435)"><g transform="translate(-670.728 -435)"><rect class="e" width="5" height="10" rx="1" transform="translate(670.728 435)"/></g><g transform="translate(-661.728 -435)"><rect class="e" width="5" height="10" rx="1" transform="translate(670.728 435)"/></g><g transform="translate(-652.728 -435)"><rect class="e" width="5" height="10" rx="1" transform="translate(670.728 435)"/></g><g transform="translate(-643.728 -435)"><rect class="e" width="5" height="10" rx="1" transform="translate(670.728 435)"/></g><g transform="translate(-634.728 -435)"><rect class="e" width="5" height="10" rx="1" transform="translate(670.728 435)"/></g><g transform="translate(-625.728 -435)"><rect class="e" width="5" height="10" rx="1" transform="translate(670.728 435)"/></g><g transform="translate(-616.728 -435)"><rect class="e" width="5" height="10" rx="1" transform="translate(670.728 435)"/></g><g transform="translate(-607.728 -435)"><rect class="e" width="5" height="10" rx="1" transform="translate(670.728 435)"/></g><g transform="translate(-598.728 -435)"><rect class="e" width="5" height="10" rx="1" transform="translate(670.728 435)"/></g><g transform="translate(-589.728 -435)"><rect class="e" width="5" height="10" rx="1" transform="translate(670.728 435)"/></g><g transform="translate(-580.728 -435)"><rect class="e" width="5" height="10" rx="1" transform="translate(670.728 435)"/></g><g transform="translate(-571.728 -435)"><rect class="e" width="5" height="10" rx="1" transform="translate(670.728 435)"/></g></g><rect width="80" height="5" rx="2" transform="translate(731.728 366)"/><rect width="45" height="5" rx="2" transform="translate(766.728 376)"/><rect class="e" width="45" height="5" rx="2" transform="translate(766.728 402)"/><rect class="e" width="45" height="5" rx="2" transform="translate(766.728 412)"/><circle class="g" cx="4.5" cy="4.5" r="4.5" transform="translate(658.728 357)"/><circle class="e" cx="4.5" cy="4.5" r="4.5" transform="translate(658.728 360)"/><circle class="g" cx="4.5" cy="4.5" r="4.5" transform="translate(680.728 357)"/><circle class="e" cx="4.5" cy="4.5" r="4.5" transform="translate(680.728 360)"/><path class="h" d="M684,381.633s-9.851,11.153-21.637,0" transform="translate(0.863 -2)"/><path class="i" d="M684,381.633a20.93,20.93,0,0,1-21.637,0" transform="translate(0.863 -2)"/></g></svg>