<svg id="Component_22_1" data-name="Component 22 – 1" xmlns="http://www.w3.org/2000/svg" width="203.945" height="204" viewBox="0 0 203.945 204">
  <g id="Group_284" data-name="Group 284" transform="translate(-769.575 -147.551)">
    <rect id="Rectangle_236" data-name="Rectangle 236" width="145.37" height="143.134" rx="12" transform="translate(781.114 202.362) rotate(-17)" fill="#a3abbd" opacity="0.2"/>
    <rect id="Rectangle_237" data-name="Rectangle 237" width="145.37" height="143.134" rx="12" transform="matrix(0.695, -0.719, 0.719, 0.695, 769.575, 252.122)" fill="#a3abbd" opacity="0.2"/>
  </g>
  <g id="Component_21_1" data-name="Component 21 – 1" transform="translate(31.481 7.099)">
    <g id="Group_286" data-name="Group 286" transform="translate(-486.935 -133.099)">
      <rect id="Rectangle_243" data-name="Rectangle 243" width="122" height="162" rx="4" transform="translate(496 143)" fill="#0f55a8"/>
      <rect id="Rectangle_238" data-name="Rectangle 238" width="114" height="152" rx="4" transform="translate(500 148)" fill="#2673e5"/>
      <path id="Polygon_8" data-name="Polygon 8" d="M22.506,0A2,2,0,0,1,23.92.586L32.414,9.08A2,2,0,0,1,33,10.494V22.506a2,2,0,0,1-.586,1.414L23.92,32.414A2,2,0,0,1,22.506,33H10.494a2,2,0,0,1-1.414-.586L.586,23.92A2,2,0,0,1,0,22.506V10.494A2,2,0,0,1,.586,9.08L9.08.586A2,2,0,0,1,10.494,0Z" transform="translate(570.5 249)" fill="#ffce00"/>
      <rect id="Rectangle_239" data-name="Rectangle 239" width="69" height="5" rx="2" transform="translate(523 190)" fill="#0f55a8"/>
      <rect id="Rectangle_240" data-name="Rectangle 240" width="69" height="5" rx="2" transform="translate(523 214)" fill="#fff"/>
      <rect id="Rectangle_241" data-name="Rectangle 241" width="69" height="5" rx="2" transform="translate(523 222)" fill="#fff"/>
      <rect id="Rectangle_242" data-name="Rectangle 242" width="47" height="5" rx="2" transform="translate(534 230)" fill="#fff"/>
      <path id="Path_149" data-name="Path 149" d="M11867,1238.2s2,1.022,3.52-5.538,3.234-5.556,3.434,0,1.738,4.808,3.129,2.317-5.266.815,4.289,0,14.145,0,14.145,0" transform="translate(-11343.515 -967.185)" fill="none" stroke="#f7f7f7" stroke-linecap="round" stroke-width="1"/>
      <g id="Group_285" data-name="Group 285" transform="translate(10223.203 303.988)">
        <g id="Group_1" data-name="Group 1" transform="translate(-9676.32 -143.457)">
          <path id="Path_1" data-name="Path 1" d="M114.166,90.977s8.4-6.867,8.689-11.833.237-6.458.237-6.458-8.733-5.308-9.108-5.258-10.135,5.03-10.135,5.03S102.375,86.355,114.166,90.977Z" transform="translate(-103.789 -67.427)" fill="#fff"/>
        </g>
        <g id="Group_4" data-name="Group 4" transform="translate(-9676.606 -144.009)">
          <g id="Group_3" data-name="Group 3" transform="translate(0 0)">
            <g id="Group_2" data-name="Group 2">
              <path id="Path_2" data-name="Path 2" d="M112.683,65.206a.284.284,0,0,0-.07.026l-9.825,5.27a.281.281,0,0,0-.15.253c-.031,6.3,1.253,10.314,3.146,13.13a21.177,21.177,0,0,0,6.69,5.912.28.28,0,0,0,.3,0,21.177,21.177,0,0,0,6.748-5.846c1.921-2.8,3.245-6.8,3.276-13.1a.28.28,0,0,0-.147-.254l-9.772-5.368a.279.279,0,0,0-.193-.027Zm.058.6,9.484,5.209c-.054,6.121-1.338,9.96-3.168,12.626a20.271,20.271,0,0,1-6.432,5.593,20.267,20.267,0,0,1-6.376-5.657c-1.8-2.684-3.05-6.536-3.043-12.657Z" transform="translate(-102.638 -65.2)"/>
            </g>
          </g>
        </g>
        <g id="Group_5" data-name="Group 5" transform="translate(-9676.27 -143.459)">
          <path id="Path_3" data-name="Path 3" d="M123.349,72.678s-9.274-5.308-9.649-5.259-9.595,5.03-9.595,5.03-1.834,12.828,9.541,18.717A18.626,18.626,0,0,0,123.349,72.678Z" transform="translate(-103.996 -67.419)" fill="#fff"/>
        </g>
        <g id="Group_7" data-name="Group 7" transform="translate(-9674.455 -131.793)">
          <path id="Path_5" data-name="Path 5" d="M119.3,126.891l4.984-4.007,2.227-3.23,1.127-3.257-1.658-1.434-1.989-.152-2.745-.3-2.656.171-1.926.286-2.485,1.054-1.027.981-1.033,1.355-.8.1,4.406,6.432Z" transform="translate(-111.318 -114.507)"/>
        </g>
        <g id="Group_20" data-name="Group 20" transform="translate(-9674.564 -132.433)">
          <path id="Path_22" data-name="Path 22" d="M141.048,142.853a.38.38,0,0,0-.382.376c-.008.725-.309,1.153-.87,1.237a1.718,1.718,0,0,1-1.777-1.029c0-.008,0-.016-.008-.024a.38.38,0,1,0-.716.256,2.458,2.458,0,0,0,2.281,1.573,2.119,2.119,0,0,0,.334-.024,1.82,1.82,0,0,0,1.517-1.981v0A.38.38,0,0,0,141.048,142.853Z" transform="translate(-130.733 -135.19)" fill="#fff"/>
          <path id="Path_23" data-name="Path 23" d="M154.969,122.53a1.02,1.02,0,0,0,.46-.7v.006a.38.38,0,0,0-.751-.123.267.267,0,0,1-.13.186c-.145.1-.614.287-1.85-.012s-.979-1.805-.968-1.869a.38.38,0,0,0-.749-.133,2.27,2.27,0,0,0,1.539,2.74c.088.021.171.038.255.056a.849.849,0,0,1,.339.763.8.8,0,0,1-.625.568h0a.38.38,0,1,0,.22.728,1.532,1.532,0,0,0,1.153-1.162,1.435,1.435,0,0,0-.083-.775h.05A2.022,2.022,0,0,0,154.969,122.53Z" transform="translate(-141.014 -117.68)" fill="#fff"/>
          <path id="Path_24" data-name="Path 24" d="M111.255,117.1a3.241,3.241,0,0,1,1.378-1.279,2.98,2.98,0,0,0,.682,1.732.381.381,0,1,0,.573-.5,2.073,2.073,0,0,1-.208-2.375,3.943,3.943,0,0,1,2.937-1.469,2.755,2.755,0,0,1,2.374.9.38.38,0,1,0,.606-.46l-.011-.013a3,3,0,0,0-.641-.591,4.933,4.933,0,0,1,2.628-.3c.717.1,1.956.437,2.2,1.557a.381.381,0,0,0,.37.3.39.39,0,0,0,.081-.008.381.381,0,0,0,.294-.451v0a2.324,2.324,0,0,0-.263-.672,3.833,3.833,0,0,1,2.327.753,4.458,4.458,0,0,1,.8.756q.151-.4.287-.808a5.246,5.246,0,0,0-.646-.565,4.477,4.477,0,0,0-3.378-.84,4,4,0,0,0-1.963-.776,4.86,4.86,0,0,0-3.5.671,4.055,4.055,0,0,0-1.616-.207,4.685,4.685,0,0,0-3.54,1.837,2.792,2.792,0,0,0-.3.686,3.919,3.919,0,0,0-1.852,1.328Q111.054,116.7,111.255,117.1Z" transform="translate(-110.877 -111.925)" fill="#fff"/>
          <path id="Path_25" data-name="Path 25" d="M168.946,130.523a.381.381,0,1,0,.259.716,5.633,5.633,0,0,1,.576-.173q.232-.415.449-.857A4.754,4.754,0,0,0,168.946,130.523Z" transform="translate(-154.37 -125.679)" fill="#fff"/>
          <path id="Path_26" data-name="Path 26" d="M119.63,135.636a.381.381,0,0,0-.759.057.908.908,0,0,1-.6,1.024,1.6,1.6,0,0,1-1.234-.1c.216.317.444.631.689.94l.039,0a2.177,2.177,0,0,0,.769-.132,1.674,1.674,0,0,0,1.09-1.8Z" transform="translate(-115.515 -129.497)" fill="#fff"/>
          <path id="Path_27" data-name="Path 27" d="M129.934,123.545a1.56,1.56,0,0,1,1.927.4l.012.011a.38.38,0,1,0,.509-.565,2.282,2.282,0,0,0-2.851-.491,1.786,1.786,0,0,0-.829,1.983.381.381,0,0,0,.361.266.374.374,0,0,0,.117-.018.38.38,0,0,0,.248-.477A1.02,1.02,0,0,1,129.934,123.545Z" transform="translate(-124.243 -119.953)" fill="#fff"/>
          <path id="Path_28" data-name="Path 28" d="M166,142.1l-.52.505q.081-.027.164-.047C165.767,142.41,165.885,142.256,166,142.1Z" transform="translate(-151.954 -134.624)" fill="#fff"/>
          <path id="Path_29" data-name="Path 29" d="M131.028,135.429a5.415,5.415,0,0,0,1.16.208,18.414,18.414,0,0,0,3.881-2.953c.021-.063.042-.126.061-.192a1.855,1.855,0,0,1,.075-.249l-2.4,2.333a3.405,3.405,0,0,1-2.654.1,3.076,3.076,0,0,1-1.9-1.517,3.573,3.573,0,0,1-.211-2.7c.361-1.119,1.821-1.273,2.648-1.349.6.117.759.313.8.393a.452.452,0,0,1-.064.393.381.381,0,1,0,.661.377,1.171,1.171,0,0,0,.092-1.093,1.138,1.138,0,0,0-.34-.416,1.345,1.345,0,0,0,.3-.315,1.678,1.678,0,0,0,.193-1.331.38.38,0,0,0-.744.16.971.971,0,0,1-.082.747.679.679,0,0,1-.454.278c-.089.017-.218.028-.373.042-.92.083-2.835.256-3.357,1.877a4.346,4.346,0,0,0,.262,3.29c.045.086.1.167.146.248l-.124.011A18.107,18.107,0,0,0,131.028,135.429Z" transform="translate(-123.843 -123.125)" fill="#fff"/>
          <path id="Path_30" data-name="Path 30" d="M160.769,145.276l1.168-1.136A1.884,1.884,0,0,0,160.769,145.276Z" transform="translate(-148.408 -136.159)" fill="#fff"/>
        </g>
        <g id="Group_23" data-name="Group 23" transform="translate(-9661.582 -137.019)">
          <g id="Group_21" data-name="Group 21" transform="translate(0.105 0.105)">
            <rect id="Rectangle_1" data-name="Rectangle 1" width="0.517" height="2.858" rx="0.258" transform="matrix(-0.956, -0.292, 0.292, -0.956, 0.53, 2.92)"/>
            <path id="Path_31" data-name="Path 31" d="M164.082,96.793a.321.321,0,0,1-.095-.014l-.053-.016a.324.324,0,0,1-.215-.4l.7-2.291a.324.324,0,0,1,.4-.215l.052.016a.324.324,0,0,1,.215.4l-.7,2.291a.325.325,0,0,1-.309.229Zm-.093-.208.052.016a.138.138,0,0,0,.172-.091l.7-2.291a.138.138,0,0,0-.092-.172l-.052-.016a.137.137,0,0,0-.105.01.136.136,0,0,0-.067.081l-.7,2.291a.139.139,0,0,0,.092.172Z" transform="translate(-163.706 -93.838)"/>
          </g>
          <g id="Group_22" data-name="Group 22">
            <path id="Path_32" data-name="Path 32" d="M164.025,96.769a.363.363,0,0,1-.108-.016.371.371,0,0,1-.246-.463l.685-2.239a.371.371,0,0,1,.709.217l-.685,2.239A.371.371,0,0,1,164.025,96.769Zm.685-2.755a.146.146,0,0,0-.14.1l-.685,2.238a.146.146,0,0,0,.28.086l.685-2.239a.146.146,0,0,0-.1-.183A.148.148,0,0,0,164.711,94.013Z" transform="translate(-163.562 -93.696)"/>
            <path id="Path_33" data-name="Path 33" d="M163.744,96.578a.454.454,0,0,1-.136-.02.464.464,0,0,1-.307-.578l.685-2.239a.465.465,0,0,1,.579-.307.464.464,0,0,1,.307.578l-.685,2.239A.467.467,0,0,1,163.744,96.578Zm.685-2.979a.28.28,0,0,0-.266.2l-.685,2.238a.278.278,0,0,0,.184.347.286.286,0,0,0,.347-.184l.685-2.239a.277.277,0,0,0-.265-.358Zm-.685,2.755a.242.242,0,0,1-.07-.01.239.239,0,0,1-.159-.3l.685-2.238a.241.241,0,0,1,.3-.159.239.239,0,0,1,.16.3l-.685,2.238A.239.239,0,0,1,163.744,96.354Zm.685-2.531a.053.053,0,0,0-.051.037l-.685,2.239a.054.054,0,0,0,0,.041.053.053,0,0,0,.032.026.054.054,0,0,0,.066-.035l.685-2.239a.056.056,0,0,0,0-.041.054.054,0,0,0-.032-.026Z" transform="translate(-163.28 -93.413)"/>
          </g>
        </g>
        <g id="Group_26" data-name="Group 26" transform="translate(-9672.478 -137.046)">
          <g id="Group_24" data-name="Group 24" transform="translate(0.104 0.104)">
            <rect id="Rectangle_2" data-name="Rectangle 2" width="0.517" height="2.858" rx="0.258" transform="matrix(0.933, -0.359, 0.359, 0.933, 0.026, 0.211)"/>
            <path id="Path_34" data-name="Path 34" d="M120.9,96.628a.327.327,0,0,1-.132-.028.321.321,0,0,1-.171-.179l-.86-2.236a.324.324,0,0,1,.186-.418l.052-.02a.324.324,0,0,1,.418.186l.86,2.237a.324.324,0,0,1-.186.418l-.052.02A.318.318,0,0,1,120.9,96.628Zm-.81-2.718a.131.131,0,0,0-.049.009l-.052.02a.138.138,0,0,0-.079.178l.86,2.237a.139.139,0,0,0,.178.079l.052-.02a.138.138,0,0,0,.079-.178L120.224,94A.138.138,0,0,0,120.095,93.91Z" transform="translate(-119.72 -93.724)"/>
          </g>
          <g id="Group_25" data-name="Group 25" transform="translate(0 0)">
            <path id="Path_35" data-name="Path 35" d="M120.886,96.606a.375.375,0,0,1-.151-.032.368.368,0,0,1-.2-.205l-.84-2.185a.371.371,0,0,1,.692-.266l.84,2.185a.371.371,0,0,1-.213.479h0A.372.372,0,0,1,120.886,96.606Zm-.841-2.7a.146.146,0,0,0-.136.2l.84,2.185a.147.147,0,0,0,.189.084.146.146,0,0,0,.084-.189L120.182,94a.148.148,0,0,0-.137-.094Z" transform="translate(-119.582 -93.587)"/>
            <path id="Path_36" data-name="Path 36" d="M120.6,96.416a.465.465,0,0,1-.433-.3l-.84-2.184a.464.464,0,0,1,.865-.333l.84,2.185a.463.463,0,0,1-.432.63Zm-.841-2.926a.278.278,0,0,0-.258.378l.84,2.184a.275.275,0,0,0,.146.154.277.277,0,0,0,.372-.353l-.84-2.185a.277.277,0,0,0-.147-.154A.282.282,0,0,0,119.763,93.49Zm.841,2.7a.241.241,0,0,1-.223-.153l-.84-2.185a.239.239,0,0,1,.446-.171l.84,2.185a.239.239,0,0,1-.222.325Zm-.841-2.477a.059.059,0,0,0-.02,0,.053.053,0,0,0-.028.028.054.054,0,0,0,0,.041l.84,2.185a.05.05,0,0,0,.028.029.052.052,0,0,0,.041,0,.053.053,0,0,0,.03-.069l-.84-2.185a.054.054,0,0,0-.028-.029Z" transform="translate(-119.3 -93.304)"/>
          </g>
        </g>
        <g id="Group_29" data-name="Group 29" transform="translate(-9666.706 -138.984)">
          <g id="Group_27" data-name="Group 27" transform="translate(0.111 0.111)">
            <rect id="Rectangle_3" data-name="Rectangle 3" width="0.534" height="4.257" rx="0.267" transform="translate(0.324 0.08) rotate(3.295)"/>
            <path id="Path_37" data-name="Path 37" d="M143.434,90.37h-.019l-.057,0a.331.331,0,0,1-.311-.35l.217-3.773a.331.331,0,0,1,.35-.312l.057,0a.332.332,0,0,1,.312.35l-.217,3.773A.332.332,0,0,1,143.434,90.37Zm-.008-.186a.147.147,0,0,0,.154-.137l.217-3.773a.146.146,0,0,0-.137-.154l-.057,0a.148.148,0,0,0-.154.137l-.217,3.773a.147.147,0,0,0,.137.154Z" transform="translate(-143.046 -85.93)"/>
          </g>
          <g id="Group_28" data-name="Group 28">
            <path id="Path_38" data-name="Path 38" d="M143.354,90.335h-.022a.38.38,0,0,1-.357-.4l.214-3.717a.379.379,0,0,1,.757.044l-.214,3.716A.38.38,0,0,1,143.354,90.335Zm.214-4.25a.156.156,0,0,0-.155.146l-.214,3.717a.155.155,0,1,0,.309.018l.214-3.716a.155.155,0,0,0-.146-.164Z" transform="translate(-142.881 -85.767)"/>
            <path id="Path_39" data-name="Path 39" d="M143.071,90.145h-.028a.473.473,0,0,1-.443-.5l.214-3.717a.468.468,0,0,1,.158-.325.463.463,0,0,1,.341-.119.472.472,0,0,1,.444.5l-.214,3.716A.472.472,0,0,1,143.071,90.145Zm.214-4.475a.288.288,0,0,0-.286.27l-.214,3.716a.288.288,0,0,0,.27.3l.016.093v-.093a.287.287,0,0,0,.286-.27l.214-3.716a.287.287,0,0,0-.269-.3Zm-.218,4.25h-.008a.249.249,0,0,1-.236-.262l.214-3.716a.247.247,0,0,1,.247-.233h.008a.248.248,0,0,1,.239.262l-.214,3.716A.249.249,0,0,1,143.068,89.92Zm.218-4.119v.093a.062.062,0,0,0-.062.058l-.214,3.716a.062.062,0,0,0,.058.065h0a.062.062,0,0,0,.064-.059l.214-3.716a.064.064,0,0,0-.016-.045.061.061,0,0,0-.043-.021Z" transform="translate(-142.599 -85.484)"/>
          </g>
        </g>
        <g id="Group_33" data-name="Group 33" transform="translate(-9676.83 -144.233)">
          <g id="Group_32" data-name="Group 32">
            <g id="Group_30" data-name="Group 30" transform="translate(0.224 0.224)">
              <path id="Path_40" data-name="Path 40" d="M112.683,65.206a.284.284,0,0,0-.07.026l-9.825,5.27a.281.281,0,0,0-.15.253c-.031,6.3,1.253,10.314,3.146,13.13a21.177,21.177,0,0,0,6.69,5.912.28.28,0,0,0,.3,0,21.177,21.177,0,0,0,6.748-5.846c1.921-2.8,3.245-6.8,3.276-13.1a.28.28,0,0,0-.147-.254l-9.772-5.368a.279.279,0,0,0-.193-.027Zm.058.6,9.484,5.209c-.054,6.121-1.338,9.96-3.168,12.626a20.271,20.271,0,0,1-6.432,5.593,20.267,20.267,0,0,1-6.376-5.657c-1.8-2.684-3.05-6.536-3.043-12.657Z" transform="translate(-102.638 -65.2)" fill="#fff"/>
            </g>
            <g id="Group_31" data-name="Group 31">
              <path id="Path_41" data-name="Path 41" d="M111.942,89.384a.5.5,0,0,1-.269-.077l-.039-.026a21.436,21.436,0,0,1-6.717-5.951c-2.171-3.23-3.212-7.566-3.184-13.256a.5.5,0,0,1,.27-.451l9.823-5.269a.5.5,0,0,1,.127-.047h0a.509.509,0,0,1,.346.049l9.774,5.369a.5.5,0,0,1,.264.457c-.028,5.686-1.113,10.012-3.315,13.219a21.441,21.441,0,0,1-6.777,5.885l-.036.023A.511.511,0,0,1,111.942,89.384Zm.109-24.64-.013,0-9.824,5.27a.056.056,0,0,0-.032.051c-.028,5.6.989,9.856,3.108,13.009a20.781,20.781,0,0,0,6.588,5.825l.037.024a.054.054,0,0,0,.057,0l.034-.022a20.786,20.786,0,0,0,6.647-5.76c2.15-3.131,3.209-7.375,3.237-12.972a.058.058,0,0,0-.029-.056l-9.774-5.369A.056.056,0,0,0,112.051,64.744Zm-.107,24.071-.121-.078a20.516,20.516,0,0,1-6.44-5.72c-2.079-3.094-3.087-7.275-3.081-12.782V70.1l9.761-5.235,9.708,5.332v.134c-.048,5.507-1.1,9.678-3.208,12.751a20.524,20.524,0,0,1-6.5,5.656ZM102.75,70.369c.01,5.349.993,9.405,3,12.4a19.857,19.857,0,0,0,6.191,5.516,19.858,19.858,0,0,0,6.246-5.454c2.041-2.972,3.064-7.019,3.128-12.367l-9.26-5.086Z" transform="translate(-101.733 -64.295)" fill="#fff"/>
            </g>
          </g>
        </g>
      </g>
    </g>
    <path id="Shape_Copy_4" data-name="Shape Copy 4" d="M10.609,3.962,12.024.66c.472-.88,1.886-.88,2.122,0l1.415,3.3a10.828,10.828,0,0,0,6.13,5.723l3.536,1.321a1.046,1.046,0,0,1,0,1.981l-3.772,1.1a10.828,10.828,0,0,0-6.13,5.723l-1.415,3.3c-.472.88-1.886.88-2.122,0l-1.415-3.3a10.828,10.828,0,0,0-6.13-5.723L.707,12.767a1.046,1.046,0,0,1,0-1.981L4.244,9.465A10.275,10.275,0,0,0,10.609,3.962Z" fill="#ffce00"/>
    <path id="Shape_Copy_4-2" data-name="Shape Copy 4" d="M5.647,2.109,6.4.351c.251-.469,1-.469,1.129,0l.753,1.757a5.764,5.764,0,0,0,3.263,3.046l1.882.7a.557.557,0,0,1,0,1.054L11.42,7.5a5.764,5.764,0,0,0-3.263,3.046L7.4,12.3c-.251.469-1,.469-1.129,0l-.753-1.757A5.764,5.764,0,0,0,2.259,7.5L.376,6.8a.557.557,0,0,1,0-1.054l1.882-.7A5.469,5.469,0,0,0,5.647,2.109Z" transform="translate(120.065 48.56)" fill="#ffce00"/>
  </g>
</svg>
