<svg xmlns="http://www.w3.org/2000/svg" width="181.679" height="735.373" viewBox="0 0 181.679 735.373">
  <g id="Component_22_1" data-name="Component 22 – 1" transform="translate(1.194 1.154)">
    <g id="Group_187" data-name="Group 187" transform="matrix(-0.985, -0.174, 0.174, -0.985, 107.015, 149.634)">
      <path id="Path_3" data-name="Path 3" d="M108.21,103.376s-51.853,29.681-53.953,29.4S.61,104.654.61,104.654-9.644,32.928,53.957,0C53.957,0,114.482,28.432,108.21,103.376Z" transform="translate(0)" fill="none" stroke="#2673e5" stroke-width="2"/>
    </g>
    <g id="Group_190" data-name="Group 190" transform="translate(176.236 734.219) rotate(-178)">
      <path id="Path_22" data-name="Path 22" d="M36.738,23.254a3.7,3.7,0,0,1-3.72-3.659c-.079-7.052-3.006-11.215-8.466-12.037A16.713,16.713,0,0,0,7.262,17.572c-.022.077-.048.154-.075.231a3.7,3.7,0,1,1-6.969-2.5A23.921,23.921,0,0,1,22.411,0a20.583,20.583,0,0,1,3.247.236C34.78,1.615,40.3,8.823,40.421,19.513v.022A3.7,3.7,0,0,1,36.738,23.254Z" transform="translate(63.632 23.926)" fill="#2673e5"/>
      <path id="Path_23" data-name="Path 23" d="M39.215,21.69a9.929,9.929,0,0,1,4.477,6.779l0-.06a3.7,3.7,0,0,1-7.3,1.2A2.6,2.6,0,0,0,35.121,27.8c-1.408-.928-5.979-2.792-18,.116C5.2,30.8,7.593,45.477,7.7,46.1a3.7,3.7,0,0,1-7.29,1.295c-1.367-7.642,0-23.049,14.971-26.665.856-.207,1.668-.371,2.485-.542a8.26,8.26,0,0,0,3.3-7.42,7.779,7.779,0,0,0-6.08-5.523h0A3.7,3.7,0,1,1,17.221.16a14.911,14.911,0,0,1,11.222,11.3A13.969,13.969,0,0,1,27.636,19l.489,0A19.675,19.675,0,0,1,39.215,21.69Z" transform="translate(96.578 52.849)" fill="#2673e5"/>
      <path id="Path_24" data-name="Path 24" d="M3.676,5.678A31.54,31.54,0,0,0,17.087,18.119,28.992,28.992,0,0,1,23.726,1.266,3.7,3.7,0,1,1,29.3,6.145a20.172,20.172,0,0,0-2.025,23.114c4.453,7.381,16.745,13.541,28.577,14.3,5.733.376,16.352-.277,23.1-8.758a3.7,3.7,0,1,1,5.9,4.477c-.034.043-.068.087-.1.13a29.154,29.154,0,0,1-6.234,5.754,48,48,0,0,0,25.575,2.956c6.977-.981,19.037-4.252,21.361-15.154a3.7,3.7,0,0,1,3.6-2.929,3.794,3.794,0,0,1,.79.082,3.705,3.705,0,0,1,2.857,4.39l0,.019a22.609,22.609,0,0,1-2.56,6.535,37.3,37.3,0,0,0,22.641-7.331,43.4,43.4,0,0,0,7.815-7.36q1.464,3.844,2.789,7.861a51.052,51.052,0,0,1-6.285,5.494,43.56,43.56,0,0,1-32.872,8.17,38.882,38.882,0,0,1-19.1,7.55c-12.35,1.731-27.648-.554-34.034-6.531a39.458,39.458,0,0,1-15.72,2.011C41.086,50,26.6,42.482,20.911,33.049a27.162,27.162,0,0,1-2.891-6.675A38.131,38.131,0,0,1,0,13.45Q1.721,9.566,3.676,5.678Z" transform="translate(0 65.735)" fill="#2673e5"/>
      <path id="Path_25" data-name="Path 25" d="M2.447,7.186A3.7,3.7,0,1,1,4.963.221a54.823,54.823,0,0,0,5.61,1.685q2.257,4.043,4.366,8.338A46.273,46.273,0,0,1,2.447,7.186Z" transform="translate(139.381 67.416)" fill="#2673e5"/>
      <path id="Path_26" data-name="Path 26" d="M25.182,18.752a3.7,3.7,0,0,1-7.384-.559A8.834,8.834,0,0,0,12,8.227,15.52,15.52,0,0,0,0,9.172C2.1,6.091,4.325,3.036,6.709.021,6.837.021,6.962,0,7.09,0a21.183,21.183,0,0,1,7.485,1.283A16.287,16.287,0,0,1,25.182,18.766Z" transform="translate(14.862 43.252)" fill="#2673e5"/>
      <path id="Path_27" data-name="Path 27" d="M12.532,15.617c5.475,3.447,12.483,1.989,18.746-3.9.039-.038.077-.075.116-.111a3.7,3.7,0,0,1,4.957,5.5c-10.431,9.824-21.183,8.908-27.74,4.781A17.378,17.378,0,0,1,.541,2.587,3.7,3.7,0,0,1,4.051,0,3.647,3.647,0,0,1,5.189.176,3.7,3.7,0,0,1,7.6,4.822,9.926,9.926,0,0,0,12.532,15.617Z" transform="translate(42.835 71.179)" fill="#2673e5"/>
      <path id="Path_28" data-name="Path 28" d="M5.06,4.918,0,0C.523.176,1.056.328,1.6.456,2.761,1.9,3.912,3.4,5.06,4.918Z" transform="translate(131.639 44.077)" fill="#2673e5"/>
      <path id="Path_29" data-name="Path 29" d="M28.359,2.023A52.686,52.686,0,0,1,39.647,0,179.184,179.184,0,0,1,77.405,28.736c.2.615.405,1.227.593,1.866a18.114,18.114,0,0,0,.726,2.425l-23.352-22.7C48.5,6.6,39.8,6.28,29.543,9.378A29.934,29.934,0,0,0,11.08,24.141,34.766,34.766,0,0,0,9.023,50.434c3.515,10.884,17.724,12.391,25.77,13.124,5.849-1.138,7.389-3.042,7.755-3.828a4.4,4.4,0,0,0-.627-3.828,3.7,3.7,0,0,1,6.434-3.667,11.391,11.391,0,0,1,.9,10.639,11.063,11.063,0,0,1-3.31,4.05A13.081,13.081,0,0,1,48.9,69.985a16.332,16.332,0,0,1,1.875,12.948,3.7,3.7,0,0,1-7.237-1.56,9.446,9.446,0,0,0-.8-7.266,6.607,6.607,0,0,0-4.419-2.7c-.866-.164-2.122-.267-3.633-.4-8.951-.81-27.581-2.5-32.668-18.269A42.294,42.294,0,0,1,4.563,20.722c.436-.834.93-1.625,1.425-2.416-.391-.043-.81-.07-1.21-.106A176.2,176.2,0,0,1,28.359,2.023Z" transform="translate(41.551 0)" fill="#2673e5"/>
      <path id="Path_30" data-name="Path 30" d="M0,0,11.364,11.051A18.335,18.335,0,0,1,0,0Z" transform="translate(120.275 33.027)" fill="#2673e5"/>
    </g>
    <g id="Rectangle_136" data-name="Rectangle 136" transform="matrix(-0.978, -0.208, 0.208, -0.978, 87.193, 413.326)" fill="none" stroke="#2673e5" stroke-width="2">
      <rect width="7.692" height="58.721" rx="3.846" stroke="none"/>
      <rect x="1" y="1" width="5.692" height="56.721" rx="2.846" fill="none"/>
    </g>
  </g>
</svg>
