<svg xmlns="http://www.w3.org/2000/svg" width="160.212" height="160.255" viewBox="0 0 160.212 160.255">
  <g id="Group_193" data-name="Group 193" transform="translate(-602.894 -271.872)">
    <rect id="Rectangle_131" data-name="Rectangle 131" width="114.198" height="112.441" rx="12" transform="translate(611.959 314.93) rotate(-17)" fill="#a3abbd" opacity="0.2"/>
    <rect id="Rectangle_130" data-name="Rectangle 130" width="114.198" height="112.441" rx="12" transform="matrix(0.695, -0.719, 0.719, 0.695, 602.894, 354.02)" fill="#a3abbd" opacity="0.2"/>
    <path id="Path_54" data-name="Path 54" d="M2715.233,402.142V307.82l-9.307-2.32h-78.572l-11.276,2.32-3.927,9.876,6.01,5.9,13.393.763.808,89.535,6.658,9.394s7.4,0,10.372-2.353,1.53-7.041,1.53-7.041l-1.53-5.284v14.678h70.869l2.357-9.394Z" transform="translate(-1985.117 -2.963)" fill="#fff"/>
    <path id="Path_157" data-name="Path 157" d="M9-.551c4.971,0,9,4.581,9,9.551a9,9,0,0,1-9,9C4.029,18-1.711,11.969-1.711,7S4.029-.551,9-.551Z" transform="translate(630 304)" fill="#ededed"/>
    <path id="Path_158" data-name="Path 158" d="M38.054-.551C78.537.9,75.046,1.9,70.942,7.162s16.941,9.988-33.589,9.976S-1.208,14.344-1.711,7-2.428-2,38.054-.551Z" transform="translate(666.534 406)" fill="#ededed"/>
    <g id="Certificate" transform="translate(740.63 299.987) rotate(90)">
      <g id="Group_176" data-name="Group 176" transform="translate(103.289)">
        <path id="Path_151" data-name="Path 151" d="M68.592,82.577a2.069,2.069,0,0,1-1.834-1.116,7.875,7.875,0,0,0-13.091-1.334A2.064,2.064,0,0,1,50,78.826V10.275a10.329,10.329,0,0,1,20.658,0V80.512a2.068,2.068,0,0,1-1.576,2.008A2.1,2.1,0,0,1,68.592,82.577Zm-8.815-9.484a11.99,11.99,0,0,1,6.749,2.066V10.275a6.2,6.2,0,0,0-12.395,0V74.5A12,12,0,0,1,59.777,73.093Z" transform="translate(-50)" fill="#a3abbd"/>
      </g>
      <path id="Path_152" data-name="Path 152" d="M12.395,68.763A12.275,12.275,0,0,1,0,56.369c0-6.487,6.524-12.395,13.686-12.395h6.972a2.066,2.066,0,1,1,0,4.132H13.686c-5.379,0-9.554,4.441-9.554,8.263a8.183,8.183,0,0,0,8.263,8.263c3.243,0,6.2-1.969,6.2-4.132,0-3.834-4.518-4.132-5.9-4.132a2.066,2.066,0,0,1,0-4.132c6,0,10.033,3.32,10.033,8.263C22.724,65.057,18.09,68.763,12.395,68.763Z" transform="translate(0 46.867)" fill="#a3abbd"/>
      <path id="Path_153" data-name="Path 153" d="M12.395,111.393A12.275,12.275,0,0,1,0,99V15.38A11.419,11.419,0,0,1,11.405,3.975h93.949a2.067,2.067,0,0,1,2.066,2.066V70.262a12.016,12.016,0,0,1,16.293,5.065,2.056,2.056,0,0,1,.231.95v.279a14.2,14.2,0,0,1-14.182,14.182H22.724v12.395C22.724,107.687,18.09,111.393,12.395,111.393ZM11.405,8.1A7.284,7.284,0,0,0,4.132,15.38V99a8.183,8.183,0,0,0,8.263,8.263c3.243,0,6.2-1.969,6.2-4.132V88.672a2.067,2.067,0,0,1,2.066-2.066h89.107a10.06,10.06,0,0,0,10.046-9.8,7.876,7.876,0,0,0-12.855-.913,2.064,2.064,0,0,1-3.667-1.3V8.1Z" transform="translate(0 4.236)" fill="#a3abbd"/>
      <path id="Path_154" data-name="Path 154" d="M7.066,56.331A2.067,2.067,0,0,1,5,54.266V46.075a2.066,2.066,0,0,1,4.132,0v8.191A2.067,2.067,0,0,1,7.066,56.331Z" transform="translate(5.329 46.904)" fill="#a3abbd"/>
    </g>
    <path id="Path_155" data-name="Path 155" d="M2666.943,306.275h15.636" transform="translate(-1967.824 3)" fill="none" stroke="#ffce00" stroke-linecap="round" stroke-width="3"/>
    <path id="Path_156" data-name="Path 156" d="M2666.943,306.275h4.54" transform="translate(-1976.728 3)" fill="none" stroke="#ffce00" stroke-linecap="round" stroke-width="3"/>
  </g>
</svg>
