<svg xmlns="http://www.w3.org/2000/svg" width="147.972" height="702.468" viewBox="0 0 147.972 702.468">
  <g id="Component_21_1" data-name="Component 21 – 1" transform="translate(0 1.154)">
    <g id="Group_187" data-name="Group 187" transform="matrix(0.985, -0.174, 0.174, 0.985, 16.705, 18.87)">
      <path id="Path_3" data-name="Path 3" d="M108.21,29.406S56.358-.275,54.258,0,.61,28.127.61,28.127-9.644,99.854,53.957,132.782C53.957,132.782,114.482,104.35,108.21,29.406Z" fill="none" stroke="#2673e5" stroke-width="2"/>
    </g>
    <g id="Group_190" data-name="Group 190" transform="matrix(0.94, -0.342, 0.342, 0.94, 0, 634.427)">
      <path id="Path_22" data-name="Path 22" d="M21.48,0a2.163,2.163,0,0,0-2.175,2.139c-.046,4.123-1.758,6.557-4.95,7.038A9.772,9.772,0,0,1,4.246,3.322c-.013-.045-.028-.09-.044-.135A2.164,2.164,0,1,0,.127,4.646,13.986,13.986,0,0,0,13.1,13.6a12.035,12.035,0,0,0,1.9-.138c5.333-.806,8.561-5.02,8.632-11.27V2.175A2.164,2.164,0,0,0,21.48,0Z" transform="translate(37.205 43.594)" fill="#2673e5"/>
      <path id="Path_23" data-name="Path 23" d="M22.928,16.814a5.805,5.805,0,0,0,2.618-3.964v.035a2.164,2.164,0,0,0-4.271-.7,1.518,1.518,0,0,1-.741,1.057c-.823.543-3.5,1.632-10.524-.068C3.04,11.486,4.44,2.907,4.5,2.543A2.165,2.165,0,0,0,.239,1.786c-.8,4.468,0,13.476,8.753,15.591.5.121.975.217,1.453.317a4.829,4.829,0,0,1,1.927,4.338,4.548,4.548,0,0,1-3.555,3.229h0A2.163,2.163,0,1,0,10.069,29.4a8.718,8.718,0,0,0,6.561-6.609,8.167,8.167,0,0,0-.472-4.409h.286A11.5,11.5,0,0,0,22.928,16.814Z" transform="translate(56.468 10.783)" fill="#2673e5"/>
      <path id="Path_24" data-name="Path 24" d="M2.149,29.425a18.441,18.441,0,0,1,7.841-7.275A16.951,16.951,0,0,0,13.872,32a2.166,2.166,0,1,0,3.26-2.853,11.794,11.794,0,0,1-1.184-13.514c2.6-4.316,9.79-7.917,16.708-8.358,3.352-.22,9.561.162,13.5,5.121a2.164,2.164,0,1,0,3.448-2.618c-.02-.025-.04-.051-.061-.076A17.046,17.046,0,0,0,45.9,6.342,28.065,28.065,0,0,1,60.857,4.614c4.079.574,11.131,2.486,12.49,8.86a2.166,2.166,0,0,0,2.1,1.713,2.218,2.218,0,0,0,.462-.048,2.166,2.166,0,0,0,1.67-2.567l0-.011a13.219,13.219,0,0,0-1.5-3.821A21.81,21.81,0,0,1,89.32,13.026a25.373,25.373,0,0,1,4.57,4.3q.856-2.247,1.631-4.6A29.849,29.849,0,0,0,91.846,9.52a25.469,25.469,0,0,0-19.22-4.777A22.734,22.734,0,0,0,61.459.329c-7.221-1.012-16.166.324-19.9,3.818a23.07,23.07,0,0,0-9.191-1.176c-8.346.54-16.815,4.935-20.142,10.45a15.881,15.881,0,0,0-1.69,3.9A22.3,22.3,0,0,0,0,24.881Q1.006,27.152,2.149,29.425Z" transform="translate(0 0)" fill="#2673e5"/>
      <path id="Path_25" data-name="Path 25" d="M1.43,1.789A2.165,2.165,0,1,0,2.9,5.861a32.054,32.054,0,0,1,3.28-.985Q7.5,2.512,8.734,0A27.055,27.055,0,0,0,1.43,1.789Z" transform="translate(81.494 25.772)" fill="#2673e5"/>
      <path id="Path_26" data-name="Path 26" d="M14.724,2a2.165,2.165,0,0,0-4.317.327A5.165,5.165,0,0,1,7.018,8.155,9.075,9.075,0,0,1,0,7.6c1.229,1.8,2.529,3.587,3.923,5.351.075,0,.148.011.223.011a12.385,12.385,0,0,0,4.376-.75,9.523,9.523,0,0,0,6.2-10.222Z" transform="translate(8.69 32.926)" fill="#2673e5"/>
      <path id="Path_27" data-name="Path 27" d="M7.327,5.388c3.2-2.016,7.3-1.163,10.96,2.281l.068.065a2.165,2.165,0,0,0,2.9-3.216c-6.1-5.744-12.385-5.208-16.219-2.8A10.161,10.161,0,0,0,.316,13.006a2.165,2.165,0,0,0,2.052,1.512,2.132,2.132,0,0,0,.665-.1A2.164,2.164,0,0,0,4.443,11.7,5.8,5.8,0,0,1,7.327,5.388Z" transform="translate(25.045 15.044)" fill="#2673e5"/>
      <path id="Path_28" data-name="Path 28" d="M2.959,0,0,2.876c.306-.1.617-.192.933-.266C1.614,1.763,2.288.89,2.959,0Z" transform="translate(76.967 42.532)" fill="#2673e5"/>
      <path id="Path_29" data-name="Path 29" d="M16.581,49.009a30.805,30.805,0,0,0,6.6,1.183,104.766,104.766,0,0,0,22.077-16.8c.117-.359.237-.717.347-1.091a10.591,10.591,0,0,1,.424-1.418L32.375,44.155c-4.017,2.178-9.1,2.365-15.1.554a17.5,17.5,0,0,1-10.8-8.632A20.327,20.327,0,0,1,5.276,20.7c2.055-6.364,10.363-7.245,15.068-7.673,3.42.665,4.32,1.779,4.534,2.238a2.572,2.572,0,0,1-.367,2.238,2.165,2.165,0,0,0,3.762,2.144,6.66,6.66,0,0,0,.524-6.22,6.468,6.468,0,0,0-1.935-2.368,7.648,7.648,0,0,0,1.727-1.79,9.549,9.549,0,0,0,1.1-7.57,2.164,2.164,0,0,0-4.231.912,5.523,5.523,0,0,1-.468,4.248A3.863,3.863,0,0,1,22.4,8.442c-.506.1-1.241.156-2.124.237-5.233.474-16.126,1.459-19.1,10.681a24.729,24.729,0,0,0,1.49,18.715c.255.488.544.95.833,1.412-.228.025-.474.041-.708.062A103.018,103.018,0,0,0,16.581,49.009Z" transform="translate(24.294 20.987)" fill="#2673e5"/>
      <path id="Path_30" data-name="Path 30" d="M0,6.461,6.645,0A10.72,10.72,0,0,0,0,6.461Z" transform="translate(70.323 45.408)" fill="#2673e5"/>
    </g>
    <g id="Rectangle_136" data-name="Rectangle 136" transform="matrix(0.978, -0.208, 0.208, 0.978, 49.81, 362.528)" fill="none" stroke="#2673e5" stroke-width="2">
      <rect width="5.692" height="44.721" rx="2.846" stroke="none"/>
      <rect x="1" y="1" width="3.692" height="42.721" rx="1.846" fill="none"/>
    </g>
  </g>
</svg>
