<svg xmlns="http://www.w3.org/2000/svg" width="22.049" height="26.553" viewBox="0 0 22.049 26.553">
  <g id="Component_21_1" data-name="Component 21 – 1" transform="translate(1.04 0.993)">
    <path id="Path_3" data-name="Path 3" d="M123.918,72.832s-9.546-5.464-9.933-5.413-9.877,5.178-9.877,5.178S102.22,85.8,113.93,91.864A19.174,19.174,0,0,0,123.918,72.832Z" transform="translate(-103.996 -67.419)" fill="#2673e5" stroke="#000" stroke-width="2"/>
    <path id="Icon_material-share" data-name="Icon material-share" d="M13.263,11.226a1.7,1.7,0,0,0-1.145.45L7.953,9.251a1.617,1.617,0,0,0,0-.818l4.119-2.4a1.749,1.749,0,1,0-.561-1.279,1.912,1.912,0,0,0,.053.409l-4.119,2.4a1.753,1.753,0,1,0,0,2.559l4.16,2.43a1.648,1.648,0,0,0-.047.38,1.706,1.706,0,1,0,1.706-1.706Z" transform="translate(-0.042 2.626)"/>
  </g>
</svg>
