<svg xmlns="http://www.w3.org/2000/svg" width="160.553" height="43.434" viewBox="0 0 160.553 43.434"><g transform="translate(-52.919 -7.6)"><g transform="translate(52.919 7.6)"><path d="M224.3,81.373a3.646,3.646,0,1,1-3.646,3.69A3.644,3.644,0,0,1,224.3,81.373Zm-2.934,33.418V92.223h5.914v25.813Z" transform="translate(-220.649 -81.373)"/></g><g transform="translate(65.858 17.922)"><path d="M244.276,130.091V100.71h5.736v2.668c.978-1.69,3.424-3.157,6.714-3.157,6.4,0,10.094,4.891,10.094,11.384,0,6.626-4.136,11.517-10.316,11.517-3.024,0-5.247-1.2-6.314-2.669v12.88Zm11.294-24.578c-3.024,0-5.469,2.267-5.469,6.136s2.445,6.181,5.469,6.181S261,115.562,261,111.649C261,107.78,258.594,105.513,255.57,105.513Z" transform="translate(-244.276 -100.221)"/></g><g transform="translate(93.069 18.233)"><path d="M307.3,106.836a8.927,8.927,0,0,0-1.779-.178c-3.023,0-5.647,1.468-5.647,6.181v10.005h-5.914V100.967H299.7v3.246c1.334-2.89,4.358-3.424,6.225-3.424a13.32,13.32,0,0,1,1.378.089Z" transform="translate(-293.964 -100.789)"/></g><g transform="translate(108.718 17.744)"><path d="M345.486,111.5A11.473,11.473,0,1,1,334.014,99.9,11.231,11.231,0,0,1,345.486,111.5Zm-5.914,0c0-4.135-2.668-6.225-5.557-6.225s-5.559,2.09-5.559,6.225c0,4.091,2.668,6.225,5.559,6.225S339.572,115.638,339.572,111.5Z" transform="translate(-322.541 -99.897)"/></g><g transform="translate(133.707 11.874)"><path d="M378,95.715h4.4v5.247H378v9.16c0,1.912.889,2.535,2.579,2.535a8.556,8.556,0,0,0,1.823-.178v4.891a8.762,8.762,0,0,1-3.335.534c-4.269,0-6.937-2.534-6.937-6.759V100.961h-3.957V95.715h1.112a3.152,3.152,0,0,0,3.379-3.468V89.178H378Z" transform="translate(-368.172 -89.178)"/></g><g transform="translate(199.243 11.874)"><path d="M497.671,95.715h4.4v5.247h-4.4v9.16c0,1.912.89,2.535,2.58,2.535a8.56,8.56,0,0,0,1.823-.178v4.891a8.764,8.764,0,0,1-3.336.534c-4.269,0-6.936-2.534-6.936-6.759V100.961h-3.958V95.715h1.112a3.152,3.152,0,0,0,3.379-3.468V89.178h5.336Z" transform="translate(-487.844 -89.178)"/></g><g transform="translate(151.092 17.744)"><path d="M421.172,116.171c-1.112,3.78-4.58,6.937-9.961,6.937-6,0-11.294-4.313-11.294-11.695,0-6.982,5.158-11.517,10.76-11.517,6.76,0,10.806,4.313,10.806,11.338,0,.846-.089,1.734-.089,1.824H405.742a5.328,5.328,0,0,0,5.514,4.981,4.831,4.831,0,0,0,4.98-3.336Zm-5.515-7.159c-.089-2.179-1.512-4.313-4.89-4.313a4.734,4.734,0,0,0-4.892,4.313Z" transform="translate(-399.917 -99.897)"/></g><g transform="translate(175.679 17.744)"><path d="M450.728,111.5c0,3.957,2.579,6.181,5.6,6.181a5.008,5.008,0,0,0,5.025-3.691l5.2,1.734a10.157,10.157,0,0,1-10.227,7.382A11.32,11.32,0,0,1,444.814,111.5,11.2,11.2,0,0,1,456.153,99.9c5.959,0,9.338,3.69,10.272,7.381l-5.291,1.779a4.77,4.77,0,0,0-4.848-3.69C453.263,105.366,450.728,107.545,450.728,111.5Z" transform="translate(-444.814 -99.897)"/></g></g></svg>