<svg xmlns="http://www.w3.org/2000/svg" width="115.63" height="123.947" viewBox="0 0 115.63 123.947"><defs><style>.a{fill:#a3abbd;}</style></defs><g transform="translate(115.63) rotate(90)"><g transform="translate(103.289)"><path class="a" d="M68.592,82.577a2.069,2.069,0,0,1-1.834-1.116,7.875,7.875,0,0,0-13.091-1.334A2.064,2.064,0,0,1,50,78.826V10.275a10.329,10.329,0,0,1,20.658,0V80.512a2.068,2.068,0,0,1-1.576,2.008A2.1,2.1,0,0,1,68.592,82.577Zm-8.815-9.484a11.99,11.99,0,0,1,6.749,2.066V10.275a6.2,6.2,0,0,0-12.395,0V74.5A12,12,0,0,1,59.777,73.093Z" transform="translate(-50)"/></g><path class="a" d="M12.395,68.763A12.275,12.275,0,0,1,0,56.369c0-6.487,6.524-12.395,13.686-12.395h6.972a2.066,2.066,0,1,1,0,4.132H13.686c-5.379,0-9.554,4.441-9.554,8.263a8.183,8.183,0,0,0,8.263,8.263c3.243,0,6.2-1.969,6.2-4.132,0-3.834-4.518-4.132-5.9-4.132a2.066,2.066,0,0,1,0-4.132c6,0,10.033,3.32,10.033,8.263C22.724,65.057,18.09,68.763,12.395,68.763Z" transform="translate(0 46.867)"/><path class="a" d="M12.395,111.393A12.275,12.275,0,0,1,0,99V15.38A11.419,11.419,0,0,1,11.405,3.975h93.949a2.067,2.067,0,0,1,2.066,2.066V70.262a12.016,12.016,0,0,1,16.293,5.065,2.056,2.056,0,0,1,.231.95v.279a14.2,14.2,0,0,1-14.182,14.182H22.724v12.395C22.724,107.687,18.09,111.393,12.395,111.393ZM11.405,8.1A7.284,7.284,0,0,0,4.132,15.38V99a8.183,8.183,0,0,0,8.263,8.263c3.243,0,6.2-1.969,6.2-4.132V88.672a2.067,2.067,0,0,1,2.066-2.066h89.107a10.06,10.06,0,0,0,10.046-9.8,7.876,7.876,0,0,0-12.855-.913,2.064,2.064,0,0,1-3.667-1.3V8.1Z" transform="translate(0 4.236)"/><path class="a" d="M7.066,56.331A2.067,2.067,0,0,1,5,54.266V46.075a2.066,2.066,0,0,1,4.132,0v8.191A2.067,2.067,0,0,1,7.066,56.331Z" transform="translate(5.329 46.904)"/></g></svg>